<svg width="147" height="113" viewBox="0 0 147 113" fill="none" xmlns="http://www.w3.org/2000/svg">
<path d="M13.8786 5.62059C13.8336 -0.493907 25.4235 -1.39195 25.2877 1.82528L46.0938 1.89783C48.5017 1.93143 50.4456 4.11316 50.4372 6.76835L50.1633 95.4557C50.1549 98.0544 48.2209 100.16 45.8413 100.161L23.8015 100.271C23.5901 100.704 23.1919 101.097 22.564 101.422C16.3964 101.373 13.5933 98.9418 13.5697 95.8116C13.34 95.2343 13.6315 6.76988 13.8794 5.61983L13.8786 5.62059Z" fill="#027273"/>
<path d="M16.2558 42.012C16.767 42.0235 17.1881 41.6195 17.1927 41.114L17.3903 17.9587C17.3949 17.4456 16.9768 17.0156 16.4618 17.0042C15.9468 16.992 15.5226 17.4028 15.518 17.916L15.3334 41.072C15.3296 41.5775 15.7439 42.0005 16.255 42.0128L16.2558 42.012Z" fill="#013F40"/>
<path d="M22.9308 101.439L50.0488 101.409C52.5131 101.413 54.5173 99.2522 54.5273 96.5802L54.8568 5.36515C54.8668 2.63359 52.8541 0.394588 50.3601 0.36557L23.1635 0.0120022C20.6496 -0.0170163 18.6065 2.1861 18.6019 4.93064L18.4409 96.5726C18.4363 99.2568 20.4467 101.435 22.9308 101.438V101.439Z" fill="#03C0C2"/>
<path d="M22.3825 100.793C22.5465 100.816 22.7143 100.827 22.8814 100.827L49.9925 100.754C52.1104 100.755 53.8507 98.8598 53.8591 96.5276L54.1811 5.41264C54.1895 3.02778 52.4416 1.06521 50.2992 1.03848L23.1103 0.640625C23.0477 0.640625 22.9844 0.640625 22.9226 0.642916C21.9171 0.681098 20.9802 1.13165 20.2821 1.9098C19.5687 2.70476 19.1758 3.7624 19.1743 4.88878L19.0072 96.6231C19.0034 98.7346 20.4492 100.526 22.3825 100.793Z" fill="#0D0D0D"/>
<path d="M20.5757 5.37305L20.3942 96.7706L52.543 96.7683L52.8504 5.6388L20.5757 5.37305Z" fill="white"/>
<mask id="mask0_172_9836" style="mask-type:luminance" maskUnits="userSpaceOnUse" x="20" y="5" width="33" height="92">
<path d="M20.5474 5.37305L20.3658 96.7706L52.5146 96.7683L52.8221 5.6388L20.5474 5.37305Z" fill="white"/>
</mask>
<g mask="url(#mask0_172_9836)">
<path d="M53.9974 14.0801H14.7822V99.8587H53.9974V14.0801Z" fill="#E6E6E6"/>
<path d="M58.7778 89.1099L-4.82703 69.7981L-2.30703 67.7012L57.4541 83.2559L58.7778 89.1099Z" fill="#04F2F5"/>
<path d="M-5.41995 69.9112L-5.79962 71.2227L66.572 92.2131L66.9517 90.9017L-5.41995 69.9112Z" fill="white"/>
<path d="M29.2445 48.0765C28.686 48.02 28.1153 47.9902 27.534 47.9902C26.9526 47.9902 26.3804 48.0208 25.8212 48.0765C20.5424 48.6057 16.0098 51.6443 15.3315 55.6343C14.5846 60.023 18.6884 64.0031 24.8973 64.7645C25.5656 64.8469 26.2553 64.8912 26.9587 64.8912C27.6622 64.8912 28.3549 64.8469 29.0324 64.7645C35.2931 64.0031 39.6678 60.023 39.2199 55.6343C38.8125 51.645 34.4874 48.6057 29.2445 48.0765ZM29.0698 61.8145C28.4236 61.9252 27.7468 61.9833 27.0571 61.9833C26.3674 61.9833 25.6991 61.9252 25.0598 61.8145C21.0986 61.1371 18.4496 58.5469 18.8288 55.6343C19.1851 52.9028 22.1194 50.7447 25.7022 50.217C26.2713 50.1323 26.8595 50.088 27.4623 50.088C28.065 50.088 28.654 50.1323 29.217 50.217C32.7639 50.747 35.5517 52.9028 35.7211 55.6343C35.9027 58.5469 33.0767 61.1341 29.069 61.8145H29.0698Z" fill="#FFD84F"/>
<path d="M29.3797 37.4688L29.2179 50.2163C28.6549 50.1315 28.0659 50.0872 27.4632 50.0872C26.8604 50.0872 26.2722 50.1315 25.7031 50.2163L26.4095 37.4688H29.3797Z" fill="#FFD84F"/>
<path d="M61.3881 56.9668H36.5811C36.6894 56.5338 36.7298 56.0855 36.6963 55.6327C36.6635 55.1837 36.5605 54.7514 36.3949 54.3398H60.4703L61.3881 56.9668Z" fill="#FFD84F"/>
<path d="M26.9855 64.1017C27.6905 64.1017 28.3825 64.0345 29.0432 63.9062L28.6716 96.7957H23.3242L24.9439 63.9062C25.5962 64.0345 26.2798 64.1017 26.9847 64.1017H26.9855Z" fill="#FFD84F"/>
<path d="M20.5585 45.8753H14.3986L15.6666 42.8398H22.118L20.5585 45.8753Z" fill="white"/>
<path d="M24.9354 42.8398H23.3226L21.7082 45.8753H24.7195L24.9354 42.8398Z" fill="white"/>
<path d="M22.6909 48.0296C23.3142 47.9227 23.9459 47.9074 24.5753 47.902L24.6615 46.6855H21.2764L20.2083 48.6939C20.9994 48.406 21.8318 48.1762 22.6901 48.0288L22.6909 48.0296Z" fill="white"/>
<path d="M34.1838 55.6332C34.3074 58.3923 31.1397 60.7596 27.1014 60.7596C23.0632 60.7596 20.0564 58.3923 20.3677 55.6332C20.6607 53.0376 23.8162 51.043 27.4318 51.043C31.0474 51.043 34.0679 53.0376 34.1838 55.6332Z" fill="#03E484"/>
<path d="M27.5301 51.418C27.5301 51.418 33.5207 52.122 32.7662 55.2049C31.9544 58.5222 28.628 58.5222 29.1392 56.384C29.6267 54.3443 27.8506 53.9006 26.9121 52.9682C25.9936 52.0556 25.9684 51.4554 27.5309 51.418H27.5301Z" fill="#04F2F5"/>
<path d="M30.4094 41.9519L30.42 47.2142C30.42 47.2142 38.6033 48.8056 39.8797 53.6922H57.3129L52.8505 42.0459L30.4094 41.9512V41.9519Z" fill="#03E484"/>
<path d="M49.3464 62.9735H41.6849L40.7 58.3496H47.6412L49.3464 62.9735Z" fill="white"/>
<path d="M58.8642 62.9735H51.2035L49.3236 58.3496H56.2648L58.8642 62.9735Z" fill="white"/>
<path d="M51.981 70.1199H43.208L41.9331 64.1367H49.7754L51.981 70.1199Z" fill="white"/>
<path d="M62.881 70.1199H54.1079L51.6757 64.1367H59.5179L62.881 70.1199Z" fill="white"/>
<path d="M55.1777 80.021L52.5875 71.7637H43.5581L44.3836 77.3726L55.1777 80.021Z" fill="white"/>
<path d="M36.4361 64.1367C35.3016 65.2409 33.9191 66.2543 32.2895 66.8461L32.4055 70.1199H41.1297L40.0761 64.1367H36.4361Z" fill="white"/>
<path d="M-3.50484 73.1582C-3.03563 73.1681 22.0918 80.716 22.0918 80.716L21.3808 90.5311H-9.07812L-3.50484 73.1582Z" fill="#03E484"/>
<path d="M53.924 14.2363H15.0255V42.3224H53.924V14.2363Z" fill="#94F3F7"/>
<path d="M32.7531 71.6562L41.2195 71.935L41.6673 77.2324L32.6997 74.665L32.7531 71.6562Z" fill="white"/>
<path d="M19.3821 65.0703L18.0592 71.7957L23.2129 73.0504L23.9087 66.3593L19.3821 65.0703Z" fill="white"/>
</g>
<path d="M43.1467 19.8397L39.5174 19.81L27.8528 5.43359L31.4981 5.46337L43.1467 19.8397Z" fill="#F13005"/>
<path d="M39.5173 19.8093L35.8903 19.7795L24.2066 5.40234L27.8527 5.43289L39.5173 19.8093Z" fill="#F1E3E0"/>
<path d="M35.8904 19.78L32.2611 19.7509L20.5637 5.37305L24.2068 5.40283L35.8904 19.78Z" fill="#F13005"/>
<path d="M46.7738 19.869L43.1468 19.8393L31.4982 5.46289L35.1413 5.49267L46.7738 19.869Z" fill="#F1E3E0"/>
<path d="M54.0293 19.9296L50.403 19.8998L38.7865 5.52344L42.4295 5.55322L54.0293 19.9296Z" fill="#F1E3E0"/>
<path d="M64.558 20.0149L61.2858 19.9881L49.7181 5.61328L53.0025 5.64001L64.558 20.0149Z" fill="#F13005"/>
<path d="M61.2858 19.9886L57.6587 19.9596L46.075 5.58398L49.7181 5.61377L61.2858 19.9886Z" fill="#F1E3E0"/>
<path d="M50.4032 19.8983L46.7739 19.8686L35.1413 5.49219L38.7866 5.52197L50.4032 19.8983Z" fill="#F13005"/>
<path d="M57.6586 19.9589L54.0293 19.9291L42.4296 5.55273L46.0749 5.58328L57.6586 19.9589Z" fill="#F13005"/>
<path d="M35.8902 19.7798L35.8917 21.9684C35.8932 24.2876 32.2685 24.2578 32.2647 21.9386L32.2609 19.75L35.8902 19.7798Z" fill="#D62B04"/>
<path d="M39.5173 19.8091V21.9977C39.515 24.3169 35.8934 24.2871 35.8918 21.9679L35.8903 19.7793L39.5173 19.8091Z" fill="#F1C5BC"/>
<path d="M43.1464 19.8403L43.1426 22.0289C43.1388 24.3481 39.514 24.3183 39.5156 21.9992V19.8105L43.1464 19.8403Z" fill="#D62B04"/>
<path d="M46.7736 19.8696L46.7675 22.0582C46.7614 24.3774 43.1389 24.3476 43.1428 22.0284L43.1466 19.8398L46.7736 19.8696Z" fill="#F1C5BC"/>
<path d="M50.403 19.8989L50.3946 22.0875C50.3854 24.4067 46.7615 24.3769 46.7676 22.0577L46.7737 19.8691L50.403 19.8989Z" fill="#D62B04"/>
<path d="M54.029 19.9282L54.0183 22.1168C54.0069 24.436 50.3852 24.4062 50.3944 22.087L50.4028 19.8984L54.0298 19.9282H54.029Z" fill="#F1C5BC"/>
<path d="M57.6584 19.9595L57.6447 22.1481C57.6302 24.4665 54.0062 24.4375 54.0177 22.1183L54.0283 19.9297L57.6577 19.9595H57.6584Z" fill="#D62B04"/>
<path d="M61.2854 19.9868L61.2693 22.1754C61.2526 24.4938 57.6309 24.4648 57.6454 22.1456L57.6591 19.957L61.2854 19.9868Z" fill="#F1C5BC"/>
<path d="M64.5578 20.015L64.5395 22.2036C64.5204 24.522 61.2527 24.4953 61.2695 22.1769L61.2856 19.9883L64.5578 20.015Z" fill="#D62B04"/>
<path d="M32.261 19.7509L32.5448 19.7899L20.5475 19.6837L20.5636 5.37305L32.261 19.7509Z" fill="#F13005"/>
<path d="M31.0952 77.8547C29.3999 76.164 32.0725 72.106 36.0146 68.2801C37.6054 66.736 39.4036 65.2301 41.2041 63.9327C41.2659 63.9014 41.3186 63.864 41.3583 63.822C41.385 63.8029 41.4124 63.783 41.4391 63.7639C41.4391 63.7448 41.4361 63.7242 41.43 63.7044C41.4384 63.6761 41.4414 63.6463 41.4376 63.6166L40.3603 57.9671L48.7283 57.8869C48.8519 57.8869 48.9678 57.8251 49.0373 57.7227C49.1067 57.6197 49.1197 57.4891 49.0731 57.3745L47.5594 53.6518C47.5022 53.5113 47.3664 53.4196 47.2146 53.4196H39.5867C39.4036 52.9736 38.9413 52.0115 38.0227 50.9744C36.892 49.6968 34.8214 48.0573 31.382 47.4991C30.6176 47.4678 30.6527 48.1581 31.263 48.2345C33.8364 48.6514 35.9147 49.7304 37.4413 51.441C38.5827 52.7201 38.971 53.8938 38.9748 53.9053C39.0244 54.0596 39.1671 54.1642 39.3296 54.1642H46.9643L48.1751 57.1424H39.8141C39.2823 57.1569 39.1244 57.5181 39.1373 57.9793L39.7157 63.1538C34.4117 66.1221 28.4661 70.0358 25.7508 72.4374C22.0772 75.6875 22.1192 81.3812 26.59 85.566C36.7783 95.1016 53.28 101.518 70.543 105.794C105.174 114.373 128.165 115.919 130.461 116.128C138.292 116.772 148.46 115.582 147.525 106.73C146.59 97.879 161.402 98.4739 162.998 98.0783C145.426 97.375 45.8253 92.5488 31.0952 77.8562V77.8547Z" fill="#808080"/>
<path d="M162.999 98.0764C158 97.955 148.288 98.3727 147.18 105.023C147.061 105.805 147.152 106.593 147.207 107.372C147.313 109.134 146.859 110.949 145.687 112.292C142.05 116.089 136.148 116.01 131.247 115.834C116.505 114.697 101.868 112.312 87.3889 109.336C71.2802 105.915 54.9128 102.318 40.188 94.692C34.9093 91.8741 29.6724 88.637 25.5541 84.2453C22.6213 80.9257 22.2567 75.5023 25.7517 72.4355C23.7062 74.1308 22.6831 76.8968 23.0898 79.5206C23.9832 85.4595 30.8809 89.3022 35.4632 92.4323C45.9185 98.7943 57.6571 102.719 69.4461 105.772C89.7357 110.819 110.344 114.822 131.202 116.529C136.842 116.797 145.294 116.67 147.574 110.37C148.216 108.659 147.759 106.873 147.909 105.122C148.816 99.1776 158.635 98.5927 163 98.5484V98.0757L162.999 98.0764Z" fill="#636363"/>
<path d="M40.8121 89.8761C45.1463 91.8028 50.1932 93.5408 55.6772 95.1086C55.9732 94.658 56.4897 93.8043 56.6439 93.6042C51.3262 92.2724 46.4266 90.7795 42.1976 89.1094C41.7368 89.3667 41.2752 89.6218 40.8121 89.8761Z" fill="white"/>
<path d="M27.3918 78.1746C27.2903 78.1891 26.8478 78.3281 26.6609 78.3976C26.8936 79.4461 27.5299 80.6244 28.3134 81.5812C28.4332 81.7225 28.5576 81.8622 28.685 82.002C28.9497 81.8172 29.2145 81.6316 29.48 81.4468C28.6506 80.5404 27.8297 79.3888 27.3926 78.1738L27.3918 78.1746Z" fill="white"/>
<path d="M33.7937 68.3251C34.4361 67.8264 35.1075 67.3194 35.8239 66.7657C35.7415 66.7382 35.6583 66.7115 35.5752 66.6855C34.8717 67.1521 34.134 67.6477 33.397 68.1655C33.529 68.2197 33.6609 68.2724 33.7937 68.3251Z" fill="white"/>
<path d="M32.5257 69.1328C31.6231 69.7781 30.732 70.4539 29.9156 71.1488C30.0942 71.2626 30.2826 71.3634 30.4703 71.4589C31.2676 70.6731 32.0816 69.9889 32.9468 69.3062C32.8057 69.2497 32.6653 69.1916 32.5249 69.1336L32.5257 69.1328Z" fill="white"/>
<path d="M29.4793 72.625C29.2657 72.5074 29.0536 72.3799 28.8567 72.2363C27.1844 73.8339 26.3528 75.2703 26.5054 77.0679C26.7228 77.0679 27.1737 77.0419 27.3965 77.0068C27.3591 75.061 28.5951 73.5964 29.4793 72.625Z" fill="white"/>
<path d="M30.9381 84.1148C32.5494 85.4298 34.4804 86.6768 36.6785 87.8589C37.0767 87.6466 37.4735 87.432 37.8702 87.2175C35.5036 86.0674 33.449 84.841 31.7705 83.5352C31.4928 83.7284 31.2158 83.9208 30.9381 84.114V84.1148Z" fill="white"/>
<path d="M64.6333 95.4297C64.0215 95.952 63.4103 96.4744 62.7985 96.9967C69.5627 98.663 76.7618 100.11 83.9609 101.366C84.6376 100.925 86.2589 99.5473 86.7563 99.1853C79.2528 98.1467 71.7134 96.9058 64.6341 95.4297H64.6333Z" fill="white"/>
<path d="M134.79 103.964C127.754 103.474 111.95 102.12 102.405 101.096C101.215 101.972 100.023 102.848 98.8314 103.723C107.81 105.017 123.22 106.672 130.258 107.472C131.758 106.288 133.272 105.123 134.79 103.965V103.964Z" fill="white"/>
<path d="M31.421 48.5337C32.9345 48.5337 34.1614 48.1405 34.1614 47.6555C34.1614 47.1705 32.9345 46.7773 31.421 46.7773C29.9074 46.7773 28.6805 47.1705 28.6805 47.6555C28.6805 48.1405 29.9074 48.5337 31.421 48.5337Z" fill="#222222"/>
<path d="M32.4065 47.5799C32.4065 47.7716 31.9213 47.9273 31.3224 47.9273C30.7235 47.9273 30.2382 47.7716 30.2382 47.5799C30.2382 47.3882 30.7235 47.2324 31.3224 47.2324C31.9213 47.2324 32.4065 47.3882 32.4065 47.5799Z" fill="white"/>
<path d="M31.3218 31.7617C28.2006 31.7617 25.6692 34.2955 25.6692 37.4196C25.6692 40.5436 31.3218 46.2595 31.3218 46.2595C31.3218 46.2595 36.976 40.5452 36.976 37.4196C36.976 34.294 34.4445 31.7617 31.3218 31.7617ZM31.3218 40.6001C29.5602 40.6001 28.1327 39.1714 28.1327 37.4081C28.1327 35.6449 29.5602 34.2161 31.3218 34.2161C33.0834 34.2161 34.5124 35.6449 34.5124 37.4081C34.5124 39.1714 33.0834 40.6001 31.3218 40.6001Z" fill="#FF3305"/>
<path d="M74.0602 24.9256C74.064 24.8752 74.067 24.8248 74.067 24.7736C74.067 23.7022 73.1996 22.834 72.1291 22.834C71.0587 22.834 70.1913 23.7022 70.1913 24.7736C70.1913 24.8248 70.1936 24.8752 70.1981 24.9256H74.0609H74.0602Z" fill="white"/>
<path d="M80.4269 24.9256C80.4307 24.8752 80.4337 24.8248 80.4337 24.7736C80.4337 23.7022 79.5663 22.834 78.4959 22.834C77.4254 22.834 76.558 23.7022 76.558 24.7736C76.558 24.8248 76.5603 24.8752 76.5641 24.9256H80.4269Z" fill="white"/>
<path d="M82.0757 24.9258C82.0811 24.8762 82.0841 24.825 82.0841 24.7738C82.0841 24.0163 81.4707 23.4023 80.7139 23.4023C79.957 23.4023 79.3436 24.0163 79.3436 24.7738C79.3436 24.825 79.3467 24.8762 79.352 24.9258H82.0757Z" fill="white"/>
<path d="M78.1976 24.9254C78.2129 24.807 78.2205 24.6864 78.2205 24.5642C78.2205 22.9949 76.9495 21.7227 75.3816 21.7227C73.8138 21.7227 72.5427 22.9949 72.5427 24.5642C72.5427 24.6864 72.5504 24.807 72.5656 24.9254H78.1976Z" fill="white"/>
<path d="M95.4424 17.8299C95.4485 17.7482 95.4531 17.6657 95.4531 17.5817C95.4531 15.8345 94.0378 14.418 92.2922 14.418C90.5466 14.418 89.1313 15.8345 89.1313 17.5817C89.1313 17.665 89.1359 17.7475 89.142 17.8299H95.4432H95.4424Z" fill="white"/>
<path d="M105.827 17.8299C105.834 17.7482 105.838 17.6657 105.838 17.5817C105.838 15.8345 104.423 14.418 102.677 14.418C100.932 14.418 99.5164 15.8345 99.5164 17.5817C99.5164 17.665 99.521 17.7475 99.5271 17.8299H105.828H105.827Z" fill="white"/>
<path d="M108.516 17.8294C108.525 17.7477 108.53 17.6652 108.53 17.5812C108.53 16.3457 107.529 15.3438 106.295 15.3438C105.06 15.3438 104.059 16.3457 104.059 17.5812C104.059 17.6652 104.064 17.7477 104.073 17.8294H108.515H108.516Z" fill="white"/>
<path d="M102.191 17.8296C102.216 17.6364 102.229 17.4393 102.229 17.24C102.229 14.6803 100.156 12.6055 97.5986 12.6055C95.0412 12.6055 92.9683 14.6803 92.9683 17.24C92.9683 17.4401 92.9812 17.6364 93.0056 17.8296H102.193H102.191Z" fill="white"/>
<path d="M6.24621 81.6598C6.2424 81.6109 6.24011 81.5613 6.24011 81.5109C6.24011 80.4608 7.09079 79.6094 8.13983 79.6094C9.18888 79.6094 10.0396 80.4608 10.0396 81.5109C10.0396 81.5613 10.0373 81.6109 10.0335 81.6598H6.24698H6.24621Z" fill="white"/>
<path d="M0.00610367 81.6598C0.00228896 81.6109 0 81.5613 0 81.5109C0 80.4608 0.850678 79.6094 1.89972 79.6094C2.94877 79.6094 3.79944 80.4608 3.79944 81.5109C3.79944 81.5613 3.79716 81.6109 3.79334 81.6598H0.00686619H0.00610367Z" fill="white"/>
<path d="M2.19028 81.6589C2.17578 81.5428 2.16815 81.4244 2.16815 81.3045C2.16815 79.7666 3.41403 78.5195 4.9506 78.5195C6.48716 78.5195 7.73304 79.7666 7.73304 81.3045C7.73304 81.4244 7.72541 81.5428 7.71092 81.6589H2.19028Z" fill="white"/>
<path style="mix-blend-mode:screen" opacity="0.5" d="M108.563 43.0894C93.3106 42.4861 77.2767 40.7038 60.8284 38.293L60.1723 39.4384C76.6595 44.2914 89.9438 47.1894 102.311 48.3143C103.13 47.2184 106.775 43.8263 108.563 43.0894Z" fill="url(#paint0_linear_172_9836)"/>
<path style="mix-blend-mode:screen" opacity="0.5" d="M116.67 31.8939C101.418 31.2906 91.6345 31.0004 76.5367 29.2891L76.1376 29.9863C92.9544 32.9294 101.446 33.6304 113.812 34.7552C114.021 33.8893 115.322 32.3757 116.671 31.8939H116.67Z" fill="url(#paint1_linear_172_9836)"/>
<path style="mix-blend-mode:screen" opacity="0.5" d="M74.7185 76.2644C61.0183 75.2992 47.94 72.9624 37.7998 65.9102L37.4008 66.6074C47.5936 75.6886 57.6454 81.2701 71.3692 83.2021C71.5782 82.3361 73.3429 78.2232 74.7192 76.2644H74.7185Z" fill="url(#paint2_linear_172_9836)"/>
<g style="mix-blend-mode:soft-light" opacity="0.6">
<path d="M76.6205 92.9103L131.142 98.4804C137.922 99.7175 132.394 105.97 119.378 105.094C119.378 105.094 87.5489 101.232 71.0038 98.6743C65.0238 97.7503 66.5604 91.6358 76.6205 92.9103Z" fill="#222222"/>
</g>
<path d="M87.4947 67.7953L69.8029 66.2305L70.1042 47.7656L87.7968 49.3303L87.4947 67.7953Z" fill="#DE7F04"/>
<path d="M69.4488 47.0762L69.3855 50.9562L88.2942 52.6286L88.3606 48.5592L69.4488 47.0762Z" fill="#DE7F04"/>
<path d="M78.5456 67.1509L63.8887 65.8505L64.1916 47.3848L78.8485 48.686L78.5456 67.1509Z" fill="#FFA305"/>
<path d="M63.6512 46.6211L63.5864 50.5852L79.2511 51.9758L79.3159 47.849L63.6512 46.6211Z" fill="#FFA305"/>
<path d="M64.1506 50.5431L64.1346 50.7227L82.4914 52.3528L82.5073 52.1733L64.1506 50.5431Z" fill="#DE7F04"/>
<path d="M67.0618 66.1306L65.9639 66.0336L66.2806 46.8203L67.3777 46.9181L67.0618 66.1306Z" fill="white"/>
<path d="M76.2482 66.9568L75.1503 66.859L75.4654 47.5625L76.5633 47.6602L76.2482 66.9568Z" fill="white"/>
<path d="M92.5312 90.7718C93.9016 86.5603 91.8185 82.105 87.8786 80.8206C83.9386 79.5362 79.6337 81.9091 78.2633 86.1205C76.893 90.332 78.976 94.7873 82.916 96.0717C86.8559 97.3561 91.1608 94.9832 92.5312 90.7718Z" fill="#222222"/>
<path d="M94.8167 89.0274C94.3894 93.6345 90.6968 97.1427 85.862 96.8395C81.0273 96.5363 77.4537 92.5562 77.8809 87.9499C78.3081 83.3429 82.5737 79.8545 87.4085 80.1569C92.2433 80.4601 95.2439 84.4204 94.8167 89.0267V89.0274Z" fill="#222222"/>
<path d="M90.442 90.0899C91.411 87.1119 89.9383 83.9617 87.1526 83.0535C84.3669 82.1454 81.3231 83.8234 80.3541 86.8013C79.3851 89.7793 80.8578 92.9295 83.6435 93.8376C86.4292 94.7458 89.473 93.0678 90.442 90.0899Z" fill="#CCCCCC"/>
<path d="M87.5404 89.1837C87.9921 87.7953 87.3054 86.3266 86.0065 85.9032C84.7076 85.4798 83.2884 86.262 82.8366 87.6503C82.3849 89.0386 83.0716 90.5073 84.3705 90.9308C85.6694 91.3542 87.0886 90.572 87.5404 89.1837Z" fill="#737373"/>
<path d="M106.864 86.9862C105.505 87.1083 90.6137 86.9037 106.877 70.3059C88.4377 68.6297 79.5548 65.1284 72.0536 86.6173L105.387 89.3756C106.979 89.4756 107.305 87.5658 106.864 86.9862H106.864Z" fill="#E82728"/>
<path d="M109.549 70.4644L91.3598 68.9768C89.3976 68.8142 89.7516 64.6271 91.7138 64.7898L109.903 66.2774C112.25 66.4713 111.896 70.6584 109.549 70.4644Z" fill="#222222"/>
<path d="M87.7632 69.2959L72.1648 68.0634C71.7284 68.029 71.4049 67.6472 71.4423 67.2119C71.4797 66.7759 71.8642 66.4505 72.3006 66.4849L87.899 67.7174C88.3354 67.7518 88.6589 68.1336 88.6215 68.5689C88.5841 69.0049 88.1996 69.3303 87.7632 69.2959Z" fill="#222222"/>
<path d="M74.0178 67.128L73.3436 67.6484L79.0447 75.0476L79.7189 74.5271L74.0178 67.128Z" fill="#222222"/>
<path d="M103.602 70.1758C103.602 70.1758 88.0266 86.4888 103.611 87.2684C106.701 87.3509 106.865 86.9867 106.865 86.9867C102.397 86.22 98.1699 84.5239 101.788 78.7401C104.782 73.9535 109.832 70.427 109.832 70.427L103.603 70.1758H103.602Z" fill="#B81F20"/>
<path d="M94.9219 88.4848C95.1676 87.9679 95.3835 87.4371 95.5636 86.8926C97.5526 80.8988 94.5184 76.3437 89.0542 75.2035C76.7365 72.6339 73.1675 86.1473 73.066 86.6758L94.9219 88.4848Z" fill="#B81F20"/>
<path d="M92.0601 88.2476C92.3057 87.7306 92.5216 87.1999 92.7017 86.6554C94.6907 80.6616 91.7762 75.4283 86.1923 74.9663C80.6076 74.5043 74.4682 78.9884 72.4792 84.9815C72.2984 85.526 72.1595 86.0636 72.058 86.592L92.0601 88.2469V88.2476Z" fill="#E82728"/>
<path d="M87.6343 80.5471L80.3993 80.105C80.2582 80.0966 80.1529 79.9752 80.1659 79.8354L80.1682 79.811C80.1811 79.6712 80.307 79.5643 80.4482 79.5727L87.6831 80.0149C87.8243 80.0233 87.9296 80.1447 87.9166 80.2845L87.9143 80.3089C87.9013 80.4486 87.7754 80.5555 87.6343 80.5471Z" fill="#222222"/>
<path d="M87.5236 81.7561L80.2886 81.314C80.1475 81.3056 80.0422 81.1841 80.0552 81.0444L80.0574 81.02C80.0704 80.8802 80.1963 80.7733 80.3375 80.7817L87.5724 81.2239C87.7136 81.2323 87.8188 81.3537 87.8059 81.4934L87.8036 81.5179C87.7906 81.6576 87.6647 81.7645 87.5236 81.7561Z" fill="#222222"/>
<path d="M87.4137 82.9671L80.1787 82.5249C80.0376 82.5165 79.9323 82.3951 79.9453 82.2553L79.9476 82.2309C79.9606 82.0912 80.0864 81.9843 80.2276 81.9927L87.4626 82.4348C87.6037 82.4432 87.709 82.5646 87.696 82.7044L87.6937 82.7288C87.6807 82.8686 87.5549 82.9755 87.4137 82.9671Z" fill="#222222"/>
<path d="M87.3032 84.176L80.0682 83.7339C79.9271 83.7255 79.8218 83.6041 79.8348 83.4643L79.8371 83.4399C79.85 83.3001 79.9759 83.1932 80.1171 83.2016L87.352 83.6438C87.4932 83.6522 87.5985 83.7736 87.5855 83.9133L87.5832 83.9378C87.5702 84.0775 87.4443 84.1844 87.3032 84.176Z" fill="#222222"/>
<path d="M113.859 46.3074C113.859 46.3074 111.679 54.0348 112.554 57.0145C114.345 60.0126 127.893 59.7254 127.893 59.7254L128.887 57.5284L119.944 54.8221L120.847 49.3971C121.749 44.5144 116.236 42.8382 113.86 46.3074H113.859Z" fill="#32613F"/>
<path d="M104.863 86.8359L110.383 87.3032C111.839 85.3643 121.733 72.0548 121.991 68.9658C122.208 66.3771 121.202 63.8525 114.746 61.137C110.418 59.3164 105.428 60.2168 105.428 60.2168C105.428 60.2168 101.779 64.0587 104.811 66.3366C107.844 68.6146 113.606 69.9586 113.606 69.9586L104.863 86.8351V86.8359Z" fill="#024545"/>
<path d="M104.84 86.8771L116.014 87.7446C116.014 87.7446 119.406 86.3715 117.051 83.433C115.209 81.7049 111.502 82.5731 110.115 84.4777L106.277 84.2356L104.84 86.8771Z" fill="#222222"/>
<path d="M98.7124 86.4516L104.232 86.919C105.689 84.9801 115.582 71.6705 115.84 68.5816C116.057 65.9928 115.051 63.4682 108.596 60.7527C104.267 58.9322 101.198 59.3919 99.6875 59.7439C98.1769 60.096 95.6279 63.6752 98.6605 65.9531C101.693 68.2311 107.455 69.5751 107.455 69.5751L98.7124 86.4516Z" fill="#027273"/>
<path d="M98.6896 86.4942L109.864 87.3617C109.864 87.3617 113.255 85.9887 110.9 83.0502C109.059 81.3221 105.351 82.1903 103.965 84.0949L100.126 83.8528C98.2471 84.7669 98.6263 85.6267 98.6896 86.4942Z" fill="#222222"/>
<path d="M113.719 61.1716C116.462 60.0368 118.284 54.1498 120.058 50.5134C123.231 44.0209 113.198 39.384 107.833 45.1098C102.887 50.1025 97.6733 54.8807 98.3226 60.6362C102.994 62.9088 111.627 62.2407 113.718 61.1723L113.719 61.1716Z" fill="#56A66B"/>
<path d="M111.716 61.8392L111.628 61.6819C112.567 61.1565 112.923 60.0149 113.336 58.693C113.722 57.4605 114.157 56.0638 115.177 54.9664C117.813 51.2269 118.574 48.5457 118.749 46.9543C118.937 45.2345 118.498 44.3861 118.495 44.3777L118.653 44.293C118.672 44.3289 119.119 45.1857 118.93 46.9527C118.757 48.5694 117.99 51.2902 115.321 55.0756L115.313 55.0848C114.319 56.1531 113.889 57.5307 113.509 58.7465C113.085 60.105 112.718 61.2779 111.717 61.8385L111.716 61.8392Z" fill="#386B45"/>
<path d="M107.946 45.7049C107.946 45.7049 100.44 52.9771 102.754 57.0198C104.615 60.2729 116.172 60.9617 116.949 60.082L117.942 57.885C117.103 55.8965 112.818 55.0992 109.424 54.3203L113.29 50.7839C116.655 47.5155 112.17 41.9653 107.946 45.7041L107.946 45.7049Z" fill="#417D51"/>
<path d="M119.027 46.4257C119.027 46.4257 119.664 46.8113 119.577 47.759C120.891 46.7044 119.579 43.2336 116.236 42.0202C113.066 40.8694 119.027 46.4257 119.027 46.4257Z" fill="#417D51"/>
<path d="M115.295 42.7033C114.325 43.7426 119.027 46.4253 119.027 46.4253L122.332 41.9587L118.492 39.4395L115.296 42.7033H115.295Z" fill="#FFA794"/>
<path d="M117.253 38.113C117.253 38.113 118.283 44.8873 123.851 44.3145C126.344 44.058 127.438 40.3573 127.421 38.1939C127.385 33.4372 123.262 31.0936 120.771 32.1474C116.642 33.8954 117.234 37.4731 117.253 38.113Z" fill="#FFA794"/>
<path d="M118.052 40.6871C118.052 40.6871 119.127 43.7538 121.846 44.322C122.943 44.4755 123.227 44.3487 123.227 44.3487C122.773 44.3342 119.764 43.4117 119.288 40.054C119.118 39.4064 117.835 39.8944 118.052 40.6871Z" fill="#222222"/>
<path d="M119.679 40.4137C120.287 39.3835 120.601 37.999 120.955 36.5496C122.77 36.7909 125.171 37.0475 127.751 37.0177C128.483 37.0216 128.87 31.7272 122.959 30.9071C120.573 30.5756 117.598 31.3836 116.339 33.7295C114.982 36.2564 115.323 39.1155 116.53 40.3938C117.299 41.2086 118.853 41.3827 119.679 40.4137Z" fill="#E82728"/>
<mask id="mask1_172_9836" style="mask-type:luminance" maskUnits="userSpaceOnUse" x="115" y="30" width="14" height="12">
<path d="M119.679 40.4137C120.287 39.3835 120.601 37.999 120.955 36.5496C122.77 36.7909 125.171 37.0475 127.751 37.0177C128.483 37.0216 128.87 31.7272 122.959 30.9071C120.573 30.5756 117.598 31.3836 116.339 33.7295C114.982 36.2564 115.323 39.1155 116.53 40.3938C117.299 41.2086 118.853 41.3827 119.679 40.4137Z" fill="white"/>
</mask>
<g mask="url(#mask1_172_9836)">
<path d="M126.099 36.9587L125.768 37.0259C126.329 34.8869 124.997 33.2397 124.124 32.5334C122.625 31.3199 120.493 30.7327 119.469 31.2512L119.338 30.9908C120.472 30.4173 122.702 31.0076 124.307 32.3066C125.235 33.058 126.702 34.6609 126.099 36.9594V36.9587Z" fill="white"/>
<path d="M126.689 37.1581L126.409 37.0756C126.859 35.5445 126.479 34.0279 125.338 32.8045C124.036 31.4086 122.029 30.7205 120.345 31.0924L120.283 30.8076C122.064 30.4136 124.181 31.136 125.551 32.6052C126.765 33.9065 127.169 35.5231 126.689 37.1573L126.689 37.1581Z" fill="white"/>
</g>
<path d="M124.723 40.2121C124.466 40.2159 124.26 40.1755 124.244 40.1716C124.191 40.1609 124.157 40.1098 124.167 40.0571C124.178 40.0044 124.228 39.97 124.282 39.9807C124.289 39.9823 125.026 40.1258 125.401 39.8303C125.432 39.8059 125.447 39.773 125.45 39.7272C125.469 39.3927 124.842 38.6986 124.598 38.4595C124.56 38.4221 124.559 38.3603 124.597 38.3221C124.634 38.2839 124.696 38.2831 124.734 38.3206C124.83 38.4153 125.67 39.256 125.644 39.7379C125.638 39.8395 125.595 39.9242 125.52 39.983C125.296 40.1594 124.982 40.2075 124.722 40.2113L124.723 40.2121Z" fill="#B3523D"/>
<path d="M122.431 38.0502C122.406 38.3167 122.226 38.5221 122.028 38.5099C121.83 38.4977 121.69 38.2717 121.714 38.0052C121.739 37.7386 121.92 37.5332 122.117 37.5454C122.315 37.5577 122.455 37.7837 122.431 38.0502Z" fill="#222222"/>
<path d="M126.664 38.3792C126.642 38.6068 126.488 38.7824 126.32 38.7717C126.15 38.761 126.03 38.5678 126.052 38.3402C126.073 38.1127 126.227 37.937 126.396 37.9477C126.565 37.9584 126.685 38.1516 126.664 38.3792Z" fill="#222222"/>
<path d="M122.009 40.5957C122.009 40.5957 123.094 41.926 125.556 41.7595C125.556 41.7595 124.16 43.6617 122.504 42.8729C120.848 42.084 122.009 40.5957 122.009 40.5957Z" fill="#B33A20"/>
<path d="M120.954 36.5488C123.683 36.8321 126.311 37.0819 127.887 36.9833C127.887 36.9833 129.696 37.5385 129.218 37.9089C128.74 38.2792 120.954 36.5488 120.954 36.5488Z" fill="#222222"/>
<path d="M116.236 42.0205C116.236 42.0205 115.222 41.5471 114.734 42.5612C114.865 45.1019 116.797 47.5073 117.792 47.7456C117.953 47.3347 118.299 46.8285 119.026 46.426C119.026 46.426 116.241 44.1152 116.235 42.0205H116.236Z" fill="#417D51"/>
<path d="M134.971 94.8287C136.258 90.8746 134.302 86.6917 130.603 85.4858C126.904 84.2799 122.862 86.5077 121.576 90.4617C120.289 94.4157 122.245 98.5987 125.944 99.8046C129.643 101.01 133.685 98.7827 134.971 94.8287Z" fill="#222222"/>
<path d="M137.114 93.1892C136.713 97.5145 133.246 100.809 128.707 100.524C124.167 100.24 120.812 96.5027 121.213 92.1774C121.614 87.8521 125.619 84.5768 130.158 84.8609C134.698 85.145 137.515 88.8639 137.114 93.1892Z" fill="#222222"/>
<path d="M133.009 94.1892C133.919 91.3933 132.536 88.4357 129.921 87.5831C127.305 86.7304 124.447 88.3058 123.538 91.1017C122.628 93.8976 124.011 96.8552 126.626 97.7078C129.242 98.5605 132.099 96.9851 133.009 94.1892Z" fill="#CCCCCC"/>
<path d="M130.286 93.337C130.71 92.0333 130.065 90.6541 128.846 90.2566C127.626 89.859 126.293 90.5935 125.869 91.8972C125.445 93.201 126.09 94.5801 127.309 94.9777C128.529 95.3752 129.861 94.6407 130.286 93.337Z" fill="#737373"/>
<path d="M131.903 86.855C130.477 88.661 128.545 90.005 126.309 90.5663C126.174 90.5999 126.037 90.632 125.9 90.6595C125.679 90.7053 125.458 90.7427 125.234 90.7709C124.733 90.8374 124.226 90.8641 123.719 90.8511C123.527 90.8465 123.335 90.8359 123.143 90.8206L122.998 90.8084L114.167 90.0776H114.166L105.741 89.4934C101.779 89.2452 102.246 87.7347 106.034 87.2078C117.83 87.2567 123.11 74.7092 120.127 68.1159C119.11 65.7043 121.805 63.8548 124.394 63.4607C124.732 63.4088 125.069 63.3821 125.395 63.3828C125.62 63.3828 125.839 63.395 126.052 63.4218C126.118 63.4309 126.184 63.4393 126.248 63.4508C126.576 63.4943 126.897 63.563 127.205 63.6608C128.133 63.9556 128.943 64.5069 129.48 65.3675L133.473 74.4007C135.414 78.7916 134.49 83.5812 131.903 86.855Z" fill="#E82728"/>
<path d="M131.151 81.6213C131.118 81.8427 131.078 82.0611 131.032 82.2757L132.128 82.323C132.154 82.181 132.178 82.0413 132.199 81.9038C132.688 78.6324 131.788 75.9665 131.749 75.855L127.205 63.6603C126.897 63.5626 126.157 63.4641 125.933 63.4648L130.77 76.3063C130.817 76.4483 131.575 78.7958 131.151 81.6213Z" fill="white"/>
<path d="M131.302 55.5354C131.185 55.5217 131.065 55.5186 130.944 55.5263C130.74 55.54 130.538 55.5851 130.339 55.6592C128.865 56.2067 127.632 58.3395 127.461 60.813C127.342 62.4999 127.745 63.9615 128.461 64.8336C128.688 65.1108 128.947 65.3277 129.231 65.4743L127.313 64.8053L127.149 64.748C125.826 64.2265 124.954 62.3869 125.099 60.1433C125.269 57.5224 126.766 55.3048 128.49 55.0566C128.802 55.0666 129.125 55.0925 129.459 55.1361C130.043 55.2117 130.657 55.3415 131.303 55.5347L131.302 55.5354Z" fill="#FF6162"/>
<path d="M127.149 64.7483L121.5 62.7804C121.5 62.7804 119.524 61.8823 120.652 59.189C120.652 59.189 123.197 54.8874 128.491 55.0577C126.766 55.3058 125.27 57.5235 125.099 60.1443C124.954 62.3879 125.827 64.2283 127.15 64.7491L127.149 64.7483Z" fill="#E82728"/>
<path d="M131.302 55.5366C131.255 55.7725 131.179 56.1666 131.083 56.6668C130.71 58.6316 130.047 62.2223 129.687 64.1803C129.535 65.0073 129.436 65.5441 129.436 65.5441L129.232 65.4739C128.948 65.3273 128.689 65.1104 128.462 64.8332C127.745 63.9611 127.343 62.4995 127.462 60.8126C127.634 58.3391 128.866 56.2063 130.34 55.6588C130.538 55.5847 130.74 55.5389 130.945 55.5259C131.066 55.5175 131.186 55.5213 131.303 55.5358L131.302 55.5366Z" fill="#E82728"/>
<path d="M133.719 60.3972C133.524 63.202 131.964 65.5686 130.236 65.6839C129.878 65.7075 129.541 65.6327 129.232 65.4739C128.948 65.3273 128.689 65.1104 128.462 64.8332C127.745 63.9611 127.343 62.4995 127.462 60.8126C127.634 58.3391 128.866 56.2063 130.34 55.6588C130.538 55.5847 130.74 55.5389 130.945 55.5259C131.066 55.5175 131.186 55.5213 131.303 55.5358C132.841 55.7214 133.901 57.7886 133.72 60.3964L133.719 60.3972Z" fill="#FF6162"/>
<path d="M133.384 60.4284C133.222 62.7552 131.928 64.7193 130.494 64.8148C130.197 64.8346 129.917 64.772 129.662 64.6407C129.426 64.5192 129.211 64.339 129.022 64.1092C128.428 63.3852 128.095 62.1733 128.192 60.7736C128.335 58.7209 129.358 56.9523 130.581 56.4971C130.745 56.4361 130.913 56.3979 131.083 56.3864C131.184 56.3795 131.283 56.3826 131.38 56.3948C132.655 56.5483 133.536 58.2642 133.385 60.4276L133.384 60.4284Z" fill="white"/>
<path d="M122.792 61.4667L116.07 61.6163L116.086 58.6992L122.806 58.9306C124.11 58.9016 124.034 61.4399 122.792 61.4674V61.4667Z" fill="#222222"/>
<path d="M116.998 60.1729C117.018 59.3672 116.617 58.7038 116.102 58.6911C115.588 58.6784 115.155 59.3213 115.135 60.1271C115.115 60.9328 115.516 61.5962 116.031 61.6089C116.545 61.6216 116.978 60.9787 116.998 60.1729Z" fill="#222222"/>
<path d="M133.063 84.6315C132.799 85.3997 132.392 86.1466 131.903 86.8552C130.477 88.6605 128.545 90.0053 126.31 90.5665C125.956 90.6559 125.598 90.7246 125.236 90.772C124.543 90.8628 123.841 90.8789 123.145 90.8224L123 90.8101L114.169 90.0793C114.256 90.074 119.708 90.5375 123.73 84.2451C127.192 78.9912 134.507 80.4337 133.064 84.633L133.063 84.6315Z" fill="#B81F20"/>
<path d="M139.797 91.9152C139.858 91.861 139.896 91.8022 139.905 91.738C140.653 86.4681 134.415 80.837 129.559 81.3914C125.317 82.5101 122.679 86.2711 122.11 90.7353L139.797 91.9159L139.797 91.9152Z" fill="#E82728"/>
<path d="M116.77 58.5473C116.77 58.5473 117.742 57.1193 119.977 57.9028C122.212 58.6871 121.451 61.1918 120.851 61.5088C120.25 61.8257 118.17 62.1151 118.473 61.5614C118.777 61.0086 119.096 60.0853 118.586 59.3232C118.237 58.8016 116.754 58.7199 116.754 58.7199L116.77 58.5466V58.5473Z" fill="#FFA794"/>
<path d="M88.5729 68.5951L87.6803 68.4928L88.2181 63.7826L84.4462 63.5466L83.9197 68.1583L83.0271 68.056L83.6024 63.0197C83.6298 62.7822 83.8381 62.6081 84.0769 62.6219L88.7476 62.9143C88.8705 62.922 88.9849 62.98 89.0642 63.0747C89.1436 63.1694 89.1802 63.2923 89.1665 63.4145L88.5744 68.5951H88.5729Z" fill="#222222"/>
<g style="mix-blend-mode:soft-light" opacity="0.8">
<path d="M78.0047 87.1133L94.9222 88.4856L94.2538 91.4661L77.8529 89.0201L78.0047 87.1133Z" fill="#222222"/>
</g>
<g style="mix-blend-mode:soft-light" opacity="0.8">
<path d="M121.483 90.6844L137.145 91.7504C137.186 92.8524 137.091 93.8741 136.816 94.7874L121.176 92.6026C121.222 91.9077 121.311 91.2556 121.483 90.6836V90.6844Z" fill="#222222"/>
</g>
<path d="M80.0285 41.9165C81.8888 40.0545 81.8888 37.0354 80.0285 35.1733C78.1681 33.3112 75.1518 33.3112 73.2914 35.1733C71.431 37.0354 71.431 40.0544 73.2914 41.9165C75.1518 43.7786 78.1681 43.7786 80.0285 41.9165Z" fill="#56A66B"/>
<path d="M76.4024 40.7852L74.183 37.3136L74.5553 36.9196L76.3947 38.6615L81.9558 33.7031L82.3175 34.1644L76.4024 40.7852Z" fill="white"/>
<path style="mix-blend-mode:screen" opacity="0.5" d="M131.082 56.3878L155.691 55.2676L153.168 70.8673L130.163 64.8223L131.082 56.3878Z" fill="url(#paint3_linear_172_9836)"/>
<path d="M58.0637 28.0918H41.5445C40.8277 28.0918 40.2467 28.6734 40.2467 29.3908V39.0432C40.2467 39.7606 40.8277 40.3422 41.5445 40.3422H58.0637C58.7804 40.3422 59.3614 39.7606 59.3614 39.0432V29.3908C59.3614 28.6734 58.7804 28.0918 58.0637 28.0918Z" fill="white"/>
<path d="M43.8928 36.9805L44.0767 37.5463H44.671L44.1904 37.8961L44.3742 38.4619L43.8928 38.1122L43.4122 38.4619L43.596 37.8961L43.1146 37.5463H43.7097L43.8928 36.9805Z" fill="#FDF280"/>
<path d="M46.8156 36.9805L46.9987 37.5463H47.5937L47.1123 37.8961L47.2962 38.4619L46.8156 38.1122L46.3341 38.4619L46.518 37.8961L46.0374 37.5463H46.6317L46.8156 36.9805Z" fill="#FDF280"/>
<path d="M49.7376 36.9805L49.9215 37.5463H50.5158L50.0352 37.8961L50.2183 38.4619L49.7376 38.1122L49.257 38.4619L49.4401 37.8961L48.9594 37.5463H49.5537L49.7376 36.9805Z" fill="#FDF280"/>
<path d="M52.6596 36.9805L52.8435 37.5463H53.4378L52.9572 37.8961L53.1411 38.4619L52.6596 38.1122L52.179 38.4619L52.3629 37.8961L51.8822 37.5463H52.4765L52.6596 36.9805Z" fill="#FDF280"/>
<path d="M55.5827 36.9805L55.7666 37.5463H56.3609L55.8795 37.8961L56.0634 38.4619L55.5827 38.1122L55.1013 38.4619L55.2852 37.8961L54.8045 37.5463H55.3988L55.5827 36.9805Z" fill="#FDF280"/>
<path d="M56.0259 31.1314H51.906C51.7206 31.1314 51.571 30.981 51.571 30.7962C51.571 30.6106 51.7213 30.4609 51.906 30.4609H56.0259C56.2113 30.4609 56.3608 30.6114 56.3608 30.7962C56.3608 30.9817 56.2105 31.1314 56.0259 31.1314Z" fill="#94F3F7"/>
<path d="M56.0259 32.5963H50.6837C50.4983 32.5963 50.3488 32.4458 50.3488 32.261C50.3488 32.0755 50.4991 31.9258 50.6837 31.9258H56.0259C56.2113 31.9258 56.3608 32.0762 56.3608 32.261C56.3608 32.4466 56.2105 32.5963 56.0259 32.5963Z" fill="#94F3F7"/>
<path d="M56.0259 34.0631H50.6837C50.4983 34.0631 50.3488 33.9126 50.3488 33.7278C50.3488 33.5422 50.4991 33.3926 50.6837 33.3926H56.0259C56.2113 33.3926 56.3608 33.543 56.3608 33.7278C56.3608 33.9134 56.2105 34.0631 56.0259 34.0631Z" fill="#94F3F7"/>
<path d="M56.0259 35.5299H50.6837C50.4983 35.5299 50.3488 35.3794 50.3488 35.1946C50.3488 35.0091 50.4991 34.8594 50.6837 34.8594H56.0259C56.2113 34.8594 56.3608 35.0098 56.3608 35.1946C56.3608 35.3802 56.2105 35.5299 56.0259 35.5299Z" fill="#94F3F7"/>
<path d="M48.72 30.2188H42.6584V35.6773H48.72V30.2188Z" fill="#94F3F7"/>
<defs>
<linearGradient id="paint0_linear_172_9836" x1="104.806" y1="45.9327" x2="41.7059" y2="34.033" gradientUnits="userSpaceOnUse">
<stop stop-color="white"/>
<stop offset="1"/>
</linearGradient>
<linearGradient id="paint1_linear_172_9836" x1="113.556" y1="34.1793" x2="60.981" y2="24.2641" gradientUnits="userSpaceOnUse">
<stop stop-color="white"/>
<stop offset="1"/>
</linearGradient>
<linearGradient id="paint2_linear_172_9836" x1="71.85" y1="77.8553" x2="21.5297" y2="68.3661" gradientUnits="userSpaceOnUse">
<stop stop-color="white"/>
<stop offset="1"/>
</linearGradient>
<linearGradient id="paint3_linear_172_9836" x1="131.253" y1="63.7873" x2="156.256" y2="63.0104" gradientUnits="userSpaceOnUse">
<stop stop-color="white"/>
<stop offset="1"/>
</linearGradient>
</defs>
</svg>
