<svg width="146" height="120" viewBox="0 0 146 120" fill="none" xmlns="http://www.w3.org/2000/svg">
<g clip-path="url(#clip0_172_5680)">
<path d="M26.714 56.3368V55.9847C26.7207 55.9305 26.7954 50.676 24.5212 47.7847C21.0453 43.3698 16.8227 43.275 16.7751 43.275V42.625C16.9652 42.625 21.3576 42.7266 25.0303 47.3852C27.1281 50.0463 27.3453 54.3799 27.3657 55.6461L28.8592 55.5581L28.9 56.2013L26.714 56.33V56.3368Z" fill="#C1682B"/>
<path d="M131.465 110.088L132.87 108.612C133.291 108.171 133.828 107.616 133.78 106.005V99.4434H134.018V106.276C134.018 107.819 133.644 108.341 132.993 109.004C132.049 109.979 131.805 110.359 131.391 110.785V110.257L131.465 110.081V110.088Z" fill="#C4B08D"/>
<path d="M146 97.9326C146 96.0164 144.663 94.4251 142.904 94.0933C142.762 90.5994 139.978 87.8096 136.564 87.8096C136.082 87.8096 135.613 87.8706 135.165 87.9721C134.656 86.0423 132.959 84.6271 130.929 84.6271C129.917 84.6271 128.987 84.986 128.247 85.5751C127.236 84.3834 125.756 83.625 124.099 83.625C121.099 83.625 118.662 86.0965 118.58 89.1774C118.499 89.1774 118.417 89.1639 118.342 89.1639C115.559 89.1639 113.312 91.5 113.312 94.371C113.312 94.4928 113.319 94.6147 113.332 94.7366C111.934 95.4544 110.963 96.944 110.963 98.6639C110.963 100.614 112.199 102.273 113.909 102.842C113.909 102.937 113.896 103.031 113.896 103.133C113.896 107.588 117.385 111.204 121.696 111.204C122.599 111.204 123.468 111.035 124.276 110.744C125.416 112.22 127.154 113.168 129.103 113.168C131.587 113.168 133.719 111.631 134.71 109.423C135.376 109.667 136.082 109.803 136.828 109.803C140.338 109.803 143.183 106.857 143.183 103.228C143.183 102.727 143.122 102.232 143.02 101.758C144.731 101.386 146.02 99.815 146.02 97.9394L146 97.9326Z" fill="#1B6D07"/>
<path d="M121.18 94.4249C121.18 94.3436 121.173 94.2692 121.173 94.1947C121.173 91.9805 122.911 90.1793 125.057 90.1793C126.645 90.1793 128.016 91.1679 128.614 92.5899C129.116 92.1565 130.033 91.4997 130.623 91.3778C135.905 90.247 135.919 96.5104 136.082 96.3615C136.326 96.1448 137.052 92.6915 134.731 90.7684C131.377 87.9922 128.98 89.8814 128.444 90.071C127.847 88.6558 126.177 87.3828 124.588 87.3828C122.443 87.3828 120.793 88.8183 120.793 91.0393C120.793 91.1205 120.644 92.3394 120.651 92.4138C119.476 92.6711 117.283 94.0119 117.283 96.375C117.283 97.1673 117.453 97.9189 117.745 98.5892C118.078 96.6459 119.408 95.0614 121.173 94.4317L121.18 94.4249Z" fill="#2D8717"/>
<path d="M130.216 96.7741C131.689 97.309 132.653 98.6836 132.769 100.207C133.475 99.8686 134.846 100.356 135.403 100.559C137.813 101.426 138.587 103.857 137.86 106.423C138.302 105.963 138.648 105.401 138.872 104.757C139.659 102.415 138.464 99.8415 136.197 99.0221C135.729 98.8529 135.253 98.7716 134.785 98.7716C134.69 97.4986 133.882 96.3407 132.646 95.8938C131.492 95.474 130.257 95.7855 129.422 96.5913C129.687 96.6251 129.958 96.6861 130.223 96.7809L130.216 96.7741Z" fill="#2D8717"/>
<path d="M30.6786 42.8016C30.6786 43.0928 30.5225 43.3298 30.3392 43.3298H5.64828C5.45819 43.3298 5.30884 43.0928 5.30884 42.8016C5.30884 42.5104 5.46498 42.2734 5.64828 42.2734H30.3392C30.5292 42.2734 30.6786 42.5104 30.6786 42.8016Z" fill="#C1682B"/>
<path d="M6.4222 42.8552C6.4222 43.6677 5.76369 44.3178 4.95582 44.3178C4.14796 44.3178 3.48944 43.6609 3.48944 42.8552C3.48944 42.0494 4.14796 41.3926 4.95582 41.3926C5.76369 41.3926 6.4222 42.0494 6.4222 42.8552Z" fill="#C1682B"/>
<path d="M11.8669 42.9102H11.0454V47.9547H11.8669V42.9102Z" fill="#C1682B"/>
<path d="M11.2694 64.2718C8.83902 64.2718 6.56477 63.317 4.85399 61.5904C4.66391 61.4008 4.43988 61.2857 4.23621 61.2857H2.91919C1.31024 61.2857 0 59.9788 0 58.374V52.2054C0 50.6006 1.31024 49.2938 2.91919 49.2938H4.23621C4.43988 49.2938 4.66391 49.1855 4.85399 48.9959C6.55798 47.2692 8.83902 46.3145 11.2694 46.3145C13.6998 46.3145 15.9741 47.2692 17.6848 48.9959C17.8749 49.1855 18.0989 49.2938 18.3026 49.2938H19.6196C21.2286 49.2938 22.5456 50.6006 22.5456 52.2054V58.374C22.5456 59.9788 21.2354 61.2857 19.6196 61.2857H18.3026C18.0989 61.2857 17.8749 61.394 17.6848 61.5904C15.9808 63.317 13.6998 64.2718 11.2694 64.2718Z" fill="#318415"/>
<path d="M21.3779 52.2136C21.3779 51.2453 20.5904 50.4666 19.6264 50.4666H18.3094C17.7595 50.4666 17.2435 50.2093 16.8566 49.8165C15.4377 48.3743 13.4622 47.4805 11.2762 47.4805C9.09018 47.4805 7.11464 48.3743 5.69578 49.8165C5.30882 50.2093 4.79287 50.4666 4.24298 50.4666H2.92595C1.95515 50.4666 1.17444 51.2521 1.17444 52.2136V58.3822C1.17444 59.3505 1.96194 60.1292 2.92595 60.1292H4.24298C4.79287 60.1292 5.30882 60.3865 5.69578 60.7792C7.11464 62.2215 9.09018 63.1085 11.2762 63.1085C13.4622 63.1085 15.4377 62.2147 16.8566 60.7792C17.2435 60.3865 17.7595 60.1292 18.3094 60.1292H19.6264C20.5972 60.1292 21.3779 59.3437 21.3779 58.3822V52.2136Z" fill="#EDBA70"/>
<path d="M143.23 116.615C143.23 118.484 141.709 120.001 139.836 120.001H12.6407C10.767 120.001 9.24634 118.484 9.24634 116.615V114.665C9.24634 112.796 10.767 111.279 12.6407 111.279H143.23V116.622V116.615Z" fill="#C6BEB9"/>
<path d="M127.731 29.7062H27.2639L38.0648 18.0664H116.93L127.731 29.7062Z" fill="#BF0808"/>
<path d="M128.288 29.5293H27.0262V112.24H128.288V29.5293Z" fill="#DDB16B"/>
<path d="M59.6736 30.4375H30.1287V112.207H59.6736V30.4375Z" fill="#C47227"/>
<path d="M124.805 29.875H62.7828V90.8568H124.805V29.875Z" fill="#C47227"/>
<path d="M122.843 33.9043H64.9485V88.9748H122.843V33.9043Z" fill="#020000"/>
<path d="M54.7653 44.2578H34.3106V89.2934H54.7653V44.2578Z" fill="#23140F"/>
<path d="M54.7653 30.3281H34.3106V39.2729H54.7653V30.3281Z" fill="#23140F"/>
<path opacity="0.15" d="M34.3106 44.2578V59.6082L51.5745 44.2578H34.3106Z" fill="#F5F5F5"/>
<path opacity="0.15" d="M44.3377 30.3281H34.3106V39.2459L44.3377 30.3281Z" fill="#F5F5F5"/>
<path d="M128.288 30.8223H27.0262V32.4H128.288V30.8223Z" fill="#FFCE78"/>
<path opacity="0.12" d="M34.813 95.6445V106.621H55.5324V95.6445H34.813ZM54.2222 105.266H36.1232V96.9988H54.2222V105.266Z" fill="#331305"/>
<path opacity="0.12" d="M62.7828 95.6445V106.621H124.69V95.6445H62.7828ZM123.251 105.266H63.9709V96.9988H123.251V105.266Z" fill="#331305"/>
<path d="M49.3003 41.9883H48.5807V91.8314H49.3003V41.9883Z" fill="#C47227"/>
<path d="M41.948 41.9883H41.2284V91.8314H41.948V41.9883Z" fill="#C47227"/>
<path d="M56.6118 57.2773H32.7967V58.0086H56.6118V57.2773Z" fill="#C47227"/>
<path d="M56.6118 72.9336H32.7967V73.6649H56.6118V72.9336Z" fill="#C47227"/>
<path d="M58.954 70.1575C58.954 70.6518 58.5534 71.0513 58.0579 71.0513C57.5623 71.0513 57.1617 70.6518 57.1617 70.1575C57.1617 69.6632 57.5623 69.2637 58.0579 69.2637C58.5534 69.2637 58.954 69.6632 58.954 70.1575Z" fill="#FFDF57"/>
<path d="M59.0966 84.2615C59.0966 84.8371 58.6281 85.3043 58.0579 85.3043C57.4876 85.3043 57.0124 84.8371 57.0124 84.2615C57.0124 83.686 57.4808 83.2188 58.0579 83.2188C58.6349 83.2188 59.0966 83.686 59.0966 84.2615Z" fill="#FFDF57"/>
<path d="M58.6621 71.2282C58.6621 71.5397 58.3905 71.7835 58.0579 71.7835C57.7252 71.7835 57.4537 71.5329 57.4537 71.2282V70.4224C57.4537 70.111 57.7252 69.8672 58.0579 69.8672C58.3905 69.8672 58.6621 70.1177 58.6621 70.4224V71.2282Z" fill="#FFDF57"/>
<path d="M58.6621 84.2419C58.6621 84.5534 58.3905 84.7971 58.0579 84.7971C57.7252 84.7971 57.4537 84.5466 57.4537 84.2419V83.4361C57.4537 83.1246 57.7252 82.8809 58.0579 82.8809C58.3905 82.8809 58.6621 83.1314 58.6621 83.4361V84.2419Z" fill="#FFDF57"/>
<path d="M58.7571 77.3755C58.7503 80.3616 58.4448 83.9775 58.0511 83.9775C57.6573 83.9775 57.3111 80.3549 57.345 77.3755C57.4129 72.4122 57.6573 70.8887 58.0511 70.8887C58.4448 70.8887 58.7707 71.796 58.7571 77.3755Z" fill="#FFDF57"/>
<path d="M84.1472 67.7539C84.283 67.7539 84.4052 67.8148 84.4866 67.9232C84.5613 68.018 84.5477 68.1534 84.4595 68.2347L84.283 68.3972C84.1879 68.4852 84.1743 68.6274 84.2422 68.7357C84.5274 69.2097 85.1723 70.5166 84.7175 72.1891C84.6564 72.4261 84.7039 72.6834 84.8804 72.8527L86.9646 74.8773C87.1886 75.1007 87.3176 75.4054 87.3176 75.7169V83.4158C87.3176 83.5377 87.3583 83.6528 87.433 83.7476L87.4941 83.8153C87.6027 83.944 87.6027 84.1268 87.4941 84.2554C87.3787 84.3976 87.2022 84.4721 87.0189 84.4721H79.558C79.3747 84.4721 79.1982 84.3909 79.0827 84.2554C78.9741 84.1268 78.9741 83.944 79.0827 83.8153L79.1438 83.7476C79.2253 83.6596 79.266 83.5377 79.266 83.4158V75.7169C79.266 75.3986 79.3882 75.0939 79.6191 74.8773L81.7032 72.8527C81.8797 72.6834 81.9273 72.4261 81.8662 72.1891C81.4113 70.5233 82.0562 69.2097 82.3414 68.7357C82.4093 68.6274 82.3957 68.4784 82.3006 68.3972L82.1241 68.2347C82.0359 68.1534 82.0223 68.018 82.097 67.9232C82.1784 67.8216 82.3006 67.7539 82.4364 67.7539H84.154H84.1472Z" fill="#891603"/>
<path d="M85.7697 77.2051H79.2661V82.1345H85.7697V77.2051Z" fill="#CC8A05"/>
<path d="M82.2259 67.4949L82.3821 67.7522C82.3821 67.7522 82.416 67.7522 82.4296 67.7522H84.1472C84.1472 67.7522 84.1947 67.7522 84.2151 67.759L84.3712 67.5016C84.473 67.3324 84.5409 67.1428 84.5749 66.9532L84.6971 66.2354C84.7039 66.188 84.6699 66.1406 84.6156 66.1406H81.9883C81.934 66.1406 81.8933 66.188 81.9069 66.2354L82.0223 66.9532C82.0562 67.1495 82.1241 67.3324 82.2259 67.5016V67.4949Z" fill="#806854"/>
<path d="M81.968 66.6081H84.636L84.6767 66.3711H81.9272L81.968 66.6081Z" fill="#FFF5CF"/>
<path d="M84.6156 66.1348H81.9883C81.934 66.1348 81.8933 66.1822 81.9069 66.2296L82.0223 66.9473C82.0562 67.1437 82.1241 67.3265 82.2259 67.4958L82.3821 67.7531C82.3821 67.7531 82.416 67.7531 82.4296 67.7531H84.1472C84.1472 67.7531 84.1947 67.7531 84.2151 67.7599L84.3712 67.5026C84.473 67.3333 84.5409 67.1437 84.5749 66.9541L84.6971 66.2363C84.7039 66.1889 84.6699 66.1415 84.6156 66.1415V66.1348Z" fill="#DDB16B"/>
<path d="M82.2599 68.3555L82.3006 68.3961C82.3753 68.4638 82.4025 68.5722 82.3753 68.667H84.2083C84.1811 68.5722 84.2083 68.4706 84.283 68.3961L84.3237 68.3555H82.2667H82.2599Z" fill="#B4CED9"/>
<path d="M84.3237 78.3848H79.2661V80.2604H84.3237V78.3848Z" fill="#60402F"/>
<g opacity="0.3">
<path d="M82.4025 67.8008C82.4025 67.8008 82.1038 67.8685 82.1581 68.1123C82.1581 68.1123 82.1852 68.2815 82.3482 68.2815C82.5111 68.2815 82.1649 68.1529 82.4025 67.8008Z" fill="white"/>
</g>
<g opacity="0.3">
<path d="M82.8709 68.7884C82.8709 68.7884 82.8709 68.7207 82.837 68.7207H82.5994C82.5383 68.7207 82.4772 68.7546 82.45 68.8087C82.2531 69.1744 81.5335 70.6641 82.0359 72.2282C82.0359 72.2282 82.097 69.6619 82.8641 68.7884H82.8709Z" fill="white"/>
</g>
<g opacity="0.3">
<path d="M80.0467 84.3293C80.0467 84.3293 80.0467 84.3226 80.04 84.3226C79.8499 84.3022 79.6326 84.2481 79.5512 84.1601C79.4425 84.0314 79.4968 83.9095 79.6055 83.7876L79.6666 83.7199C79.748 83.6319 79.7888 83.5574 79.7888 83.3881L79.9856 75.8043C79.9856 75.4861 80.1146 75.1814 80.3454 74.9647L82.0562 73.0823C82.0562 73.0823 82.0562 73.0078 82.0291 73.0078H81.9612C81.9001 73.0078 81.839 73.0349 81.7915 73.0755L79.877 74.9579C79.653 75.1814 79.5172 75.4861 79.524 75.7976V83.3814C79.524 83.5574 79.4833 83.6184 79.4018 83.7131L79.3407 83.7809C79.2321 83.9027 79.1506 84.0517 79.2592 84.1804C79.3746 84.3226 79.6326 84.3361 79.8159 84.3361H80.0467H80.0535L80.0467 84.3293Z" fill="white"/>
</g>
<path d="M96.1974 62.6738H94.7513C94.6876 62.6738 94.6359 62.7254 94.6359 62.7889V63.1546C94.6359 63.2182 94.6876 63.2697 94.7513 63.2697H96.1974C96.2611 63.2697 96.3128 63.2182 96.3128 63.1546V62.7889C96.3128 62.7254 96.2611 62.6738 96.1974 62.6738Z" fill="#DDB16B"/>
<path d="M96.1905 63.2773C96.2516 63.2773 96.306 63.3315 96.306 63.3925V63.6091C96.306 63.7581 96.3399 63.9138 96.3874 64.056C96.5775 64.6113 96.9916 66.2093 96.5503 68.498C96.4485 69.0464 96.6386 69.6085 97.0731 69.9403C97.6433 70.3668 98.0846 70.983 98.0846 71.694V83.2525C98.0846 83.5098 97.8742 83.7197 97.6162 83.7197H93.3257C93.0677 83.7197 92.8572 83.5098 92.8572 83.2525V71.694C92.8572 70.983 93.2985 70.3668 93.8688 69.9403C94.3033 69.6085 94.5001 69.0397 94.3915 68.498C93.9502 66.2093 94.3644 64.6113 94.5544 64.056C94.602 63.9138 94.6359 63.7581 94.6359 63.6091V63.3925C94.6359 63.3247 94.6902 63.2773 94.7513 63.2773H96.1837H96.1905Z" fill="#284F07"/>
<path opacity="0.3" d="M94.1267 70.3996C94.1267 70.3996 94.1471 70.3184 94.1063 70.3184H94.0181C93.9366 70.3184 93.8619 70.3454 93.8076 70.3996C93.346 70.8194 93.1423 71.3747 93.1423 72.0112V82.8655C93.1423 83.1228 93.3528 83.3327 93.6108 83.3327H94.1946C93.9366 83.3327 93.7262 83.1228 93.7262 82.8655V72.0112C93.7262 71.3747 93.699 70.8194 94.1267 70.3996Z" fill="white"/>
<g opacity="0.3">
<path d="M94.8328 68.4906C94.7785 68.5109 94.7106 68.4906 94.697 68.4364C94.2422 66.7842 94.5816 64.9086 94.697 64.4008C94.7106 64.333 94.7717 64.2856 94.8396 64.2992C94.9007 64.3127 94.9414 64.3737 94.9278 64.4346C94.8328 64.8951 94.4865 66.7504 94.921 68.3416C94.9346 68.4026 94.9074 68.4703 94.8396 68.4906H94.8328Z" fill="white"/>
</g>
<path d="M122.843 84.2676H64.9485V88.9465H122.843V84.2676Z" fill="#60402F"/>
<path d="M105.865 62.6869C107.562 65.0094 105.81 66.1199 104.249 63.6958C103.169 62.0165 102.62 61.0414 101.418 58.2246C103.821 60.1883 104.514 60.8451 105.858 62.6869H105.865Z" fill="#53861C"/>
<path d="M108.947 62.7073C107.256 65.0366 109.008 66.1403 110.562 63.7162C111.642 62.0302 112.185 61.0619 113.387 58.2383C110.983 60.2019 110.291 60.8588 108.953 62.7073H108.947Z" fill="#53861C"/>
<path d="M106.971 63.2353C107.718 66.0115 105.878 66.5058 105.131 63.7296C104.385 60.9534 103.753 58.6376 103.746 54.9473C105.22 57.8657 106.218 60.4591 106.971 63.2353Z" fill="#53861C"/>
<path d="M108.451 63.0328C108.478 65.9106 106.571 65.9241 106.543 63.0531C106.516 60.1754 106.496 57.7783 107.419 54.2031C108.105 57.3924 108.424 60.155 108.451 63.0328Z" fill="#53861C"/>
<path d="M107.752 63.1068C107.059 65.8965 108.906 66.357 109.598 63.5672C110.291 60.7774 110.868 58.4481 110.807 54.7578C109.395 57.7033 108.444 60.317 107.752 63.1068Z" fill="#53861C"/>
<path d="M108.451 63.0328C108.424 60.155 108.105 57.3924 107.419 54.2031V65.1861C107.928 65.2876 108.465 64.5699 108.451 63.0328Z" fill="#3E630F"/>
<path d="M109.598 63.5613C110.291 60.7716 110.868 58.4423 110.807 54.752L107.962 65.3286C108.424 65.6943 109.198 65.1594 109.598 63.5613Z" fill="#3E630F"/>
<path d="M108.322 64.7193C108.58 65.3558 109.612 65.2 110.562 63.7104C111.642 62.0243 112.185 61.056 113.387 58.2324L108.322 64.7125V64.7193Z" fill="#3E630F"/>
<path d="M106.971 63.2353C106.224 60.4591 105.22 57.8657 103.746 54.9473L106.537 65.5781C107.039 65.5307 107.365 64.6979 106.971 63.2353Z" fill="#3E630F"/>
<path d="M106.503 63.9531L105.654 62.4092C104.439 60.7706 103.699 60.0867 101.418 58.2246L106.279 64.9688C106.523 64.813 106.625 64.4542 106.503 63.9531Z" fill="#3E630F"/>
<path d="M106.041 66.0128C107.555 68.4572 105.722 69.4255 104.357 66.8931C103.407 65.1325 102.939 64.1236 101.961 61.2188C104.208 63.3585 104.846 64.0694 106.048 66.006L106.041 66.0128Z" fill="#6EA029"/>
<path d="M108.797 66.0128C107.283 68.4572 109.116 69.4255 110.481 66.8931C111.431 65.1325 111.9 64.1236 112.877 61.2188C110.63 63.3585 109.992 64.0694 108.791 66.006L108.797 66.0128Z" fill="#6EA029"/>
<path d="M107.093 66.6146C107.691 69.4246 105.831 69.8241 105.226 67.0073C104.629 64.1972 104.127 61.8476 104.317 58.1641C105.627 61.157 106.489 63.7977 107.087 66.6146H107.093Z" fill="#6EA029"/>
<path d="M108.451 66.3785C108.478 69.2563 106.571 69.2699 106.543 66.3988C106.516 63.5278 106.496 61.124 107.419 57.5488C108.105 60.7381 108.424 63.5008 108.451 66.3785Z" fill="#6EA029"/>
<path d="M107.67 66.4661C107.073 69.2762 108.933 69.6757 109.537 66.8589C110.135 64.0488 110.637 61.6992 110.447 58.0156C109.137 61.0085 108.275 63.6561 107.67 66.4661Z" fill="#6EA029"/>
<path d="M108.451 66.3785C108.424 63.5075 108.105 60.7381 107.419 57.5488V68.5318C107.928 68.6334 108.465 67.9156 108.451 66.3785Z" fill="#567F16"/>
<path d="M109.537 66.8589C110.135 64.0488 110.637 61.6992 110.447 58.0156L107.962 68.6803C108.438 69.0324 109.198 68.4772 109.537 66.8589Z" fill="#567F16"/>
<path d="M108.322 68.0723C108.628 68.6885 109.646 68.4515 110.481 66.9009C111.431 65.1403 111.9 64.1314 112.877 61.2266L108.322 68.0723Z" fill="#567F16"/>
<path d="M107.093 66.6146C106.496 63.8045 105.634 61.157 104.324 58.1641L106.537 68.9303C107.046 68.9033 107.412 68.0975 107.093 66.6146Z" fill="#567F16"/>
<path d="M106.584 67.3207L105.858 65.7227C104.772 63.996 104.086 63.2579 101.954 61.2266L106.279 68.3228C106.53 68.1806 106.666 67.8353 106.577 67.3275L106.584 67.3207Z" fill="#567F16"/>
<path d="M112.871 75.3359C112.871 80.3331 112.66 84.3823 107.419 84.3823C102.178 84.3823 101.968 80.3331 101.968 75.3359C101.968 68.7339 104.412 67.2578 107.419 67.2578C110.427 67.2578 112.871 68.8897 112.871 75.3359Z" fill="#ED992B"/>
<mask id="mask0_172_5680" style="mask-type:luminance" maskUnits="userSpaceOnUse" x="101" y="67" width="12" height="18">
<path d="M112.871 75.3359C112.871 80.3331 112.66 84.3823 107.419 84.3823C102.178 84.3823 101.968 80.3331 101.968 75.3359C101.968 68.7339 104.412 67.2578 107.419 67.2578C110.427 67.2578 112.871 68.8897 112.871 75.3359Z" fill="white"/>
</mask>
<g mask="url(#mask0_172_5680)">
<path d="M102.389 83.1168L103.122 81.5391L103.855 83.1168H102.389Z" fill="#EAC52D"/>
<path d="M105.342 83.1168L106.075 81.5391L106.808 83.1168H105.342Z" fill="#EAC52D"/>
<path d="M108.295 83.1168L109.028 81.5391L109.761 83.1168H108.295Z" fill="#EAC52D"/>
<path d="M111.248 83.1168L111.988 81.5391L112.714 83.1168H111.248Z" fill="#EAC52D"/>
<path d="M103.869 81.0386L104.602 79.4609L105.335 81.0386H103.869Z" fill="#EAC52D"/>
<path d="M106.822 81.0386L107.555 79.4609L108.288 81.0386H106.822Z" fill="#EAC52D"/>
<path d="M109.775 81.0386L110.508 79.4609L111.241 81.0386H109.775Z" fill="#EAC52D"/>
<path d="M102.389 79.0816L103.122 77.5039L103.855 79.0816H102.389Z" fill="#EAC52D"/>
<path d="M105.342 79.0816L106.075 77.5039L106.808 79.0816H105.342Z" fill="#EAC52D"/>
<path d="M108.295 79.0816L109.028 77.5039L109.761 79.0816H108.295Z" fill="#EAC52D"/>
<path d="M111.248 79.0816L111.988 77.5039L112.714 79.0816H111.248Z" fill="#EAC52D"/>
<path d="M102.389 76.8316L103.122 75.2539L103.855 76.8316H102.389Z" fill="#EAC52D"/>
<path d="M105.342 76.8316L106.075 75.2539L106.808 76.8316H105.342Z" fill="#EAC52D"/>
<path d="M108.295 76.8316L109.028 75.2539L109.761 76.8316H108.295Z" fill="#EAC52D"/>
<path d="M111.248 76.8316L111.988 75.2539L112.714 76.8316H111.248Z" fill="#EAC52D"/>
<path d="M103.869 74.7535L104.602 73.1758L105.335 74.7535H103.869Z" fill="#EAC52D"/>
<path d="M106.822 74.7535L107.555 73.1758L108.288 74.7535H106.822Z" fill="#EAC52D"/>
<path d="M109.775 74.7535L110.508 73.1758L111.241 74.7535H109.775Z" fill="#EAC52D"/>
<path d="M102.389 72.7897L103.122 71.2188L103.855 72.7897H102.389Z" fill="#EAC52D"/>
<path d="M105.342 72.7897L106.075 71.2188L106.808 72.7897H105.342Z" fill="#EAC52D"/>
<path d="M108.295 72.7897L109.028 71.2188L109.761 72.7897H108.295Z" fill="#EAC52D"/>
<path d="M111.248 72.7897L111.988 71.2188L112.714 72.7897H111.248Z" fill="#EAC52D"/>
<path d="M102.389 70.5484L103.122 68.9707L103.855 70.5484H102.389Z" fill="#EAC52D"/>
<path d="M105.342 70.5484L106.075 68.9707L106.808 70.5484H105.342Z" fill="#EAC52D"/>
<path d="M108.295 70.5484L109.028 68.9707L109.761 70.5484H108.295Z" fill="#EAC52D"/>
<path d="M111.248 70.5484L111.988 68.9707L112.714 70.5484H111.248Z" fill="#EAC52D"/>
<path d="M103.869 68.4703L104.602 66.8926L105.335 68.4703H103.869Z" fill="#EAC52D"/>
<path d="M106.822 68.4703L107.555 66.8926L108.288 68.4703H106.822Z" fill="#EAC52D"/>
<path d="M109.775 68.4703L110.508 66.8926L111.241 68.4703H109.775Z" fill="#EAC52D"/>
</g>
<g style="mix-blend-mode:multiply" opacity="0.5">
<path d="M109.021 68.0224C110.162 69.5866 110.155 70.9882 110.155 75.5317C110.155 79.0121 110.413 81.8222 108.614 83.5286C112.212 82.4993 112.205 79.5471 112.205 75.3827C112.205 71.2184 111.16 69.2886 109.021 68.0156V68.0224Z" fill="#BA6B0D"/>
</g>
<g style="mix-blend-mode:overlay" opacity="0.6">
<path d="M106.367 73.122C106.367 75.1601 105.736 76.8055 104.962 76.8055C104.188 76.8055 103.556 75.1533 103.556 73.122C103.556 71.0906 104.188 69.4316 104.962 69.4316C105.736 69.4316 106.367 71.0838 106.367 73.122Z" fill="#FFB25F"/>
</g>
<path d="M91.323 84.9996C91.6285 84.9996 91.934 84.8845 92.1376 84.6475C93.8077 82.7651 93.6108 80.6864 93.6108 80.6864C93.5293 79.5352 92.769 78.6617 92.1105 78.12C91.513 77.6257 90.8953 77.1382 90.4336 76.522C89.9788 75.9126 89.7276 75.1678 89.7276 74.4094V71.8973C89.7276 71.8296 89.6733 71.7754 89.6054 71.7754H88.5939C88.526 71.7754 88.4717 71.8296 88.4717 71.8973V74.4094C88.4717 75.1678 88.2205 75.9126 87.7656 76.522C87.304 77.145 86.6862 77.6257 86.0888 78.12C85.4303 78.6617 84.6699 79.5352 84.5885 80.6864C84.5885 80.6864 84.3916 82.7651 86.0616 84.6475C86.2653 84.8778 86.5708 84.9996 86.8763 84.9996H91.3026H91.323Z" fill="#A03743"/>
<path d="M89.5851 71.2137C89.5851 71.146 89.5307 71.0918 89.4629 71.0918H88.7365C88.6686 71.0918 88.6143 71.146 88.6143 71.2137V71.7689H89.5783V71.2137H89.5851Z" fill="#DDB16B"/>
<g opacity="0.33">
<path d="M86.9985 84.4654C85.4303 82.6981 85.6136 80.748 85.6136 80.748C85.6883 79.6646 86.3196 78.8453 86.8967 78.2968C87.2022 78.0056 87.3583 77.816 87.6231 77.552C87.6502 77.5181 87.6299 77.4707 87.5891 77.4707H87.4262C87.3447 77.4707 87.2701 77.5046 87.2157 77.552C86.9238 77.8228 86.6047 78.0801 86.2993 78.3374C85.6815 78.852 84.9686 79.6646 84.894 80.7548C84.894 80.7548 84.7107 82.7049 86.2789 84.4722C86.469 84.6888 86.7541 84.7972 87.046 84.7972H87.7656C87.4737 84.7972 87.1886 84.6888 86.9985 84.4722V84.4654Z" fill="white"/>
</g>
<g opacity="0.33">
<path d="M88.7093 72.1484C88.7093 72.0807 88.8179 72.0807 88.8247 72.1484C88.8383 72.3177 88.8519 72.487 88.8586 72.6563C88.879 72.9813 88.8858 73.3131 88.8858 73.6381C88.8858 73.9631 88.879 74.2881 88.8586 74.6199C88.8519 74.7892 88.8383 74.9585 88.8247 75.1278C88.8247 75.1955 88.7161 75.1955 88.7093 75.1278C88.6957 74.9585 88.6821 74.7892 88.6753 74.6199C88.655 74.2881 88.6482 73.9631 88.6482 73.6381C88.6482 73.3131 88.6482 72.9813 88.6753 72.6563C88.6821 72.487 88.6957 72.3177 88.7093 72.1484Z" fill="white"/>
</g>
<path d="M73.0204 75.9189C73 75.7429 73.3055 75.384 73.3395 75.3027H73.3598C73.3259 75.3908 73.0611 75.77 73.0747 75.9121H73.0204V75.9189Z" fill="#10A028"/>
<path d="M75.3082 79.7771C74.9552 79.4521 74.7108 78.9104 74.6022 78.4499C74.3103 77.2379 73.6789 75.4909 73.0408 75.9446C72.4433 75.5383 71.7102 77.204 71.4386 78.4228C71.33 78.9036 71.1195 79.4521 70.7597 79.7906C70.1148 80.3933 69.7075 81.26 69.7075 82.2147C69.7075 84.0497 71.0041 85.9525 73.0408 85.5326C74.9145 85.9728 76.3741 84.043 76.3741 82.2147C76.3741 80.9959 75.9667 80.3865 75.315 79.7839L75.3082 79.7771Z" fill="#D4E533"/>
<path d="M74.9688 79.9877C74.6362 79.6762 74.4189 79.2632 74.3374 78.8095C74.1813 77.9293 74.0455 76.6969 73.3327 76.5547C73.6654 77.0828 73.6857 77.8615 73.6314 78.5793C73.5907 79.0939 73.6382 79.6085 73.9709 79.9674C75.2947 81.4097 75.1996 83.6848 74.1202 84.9713C75.7359 84.3484 76.6796 81.6128 74.9756 79.9809L74.9688 79.9877Z" fill="#B9C121"/>
<path d="M73.2376 76.0607C73.2376 76.1081 73.1494 76.1487 73.0407 76.1487C72.9321 76.1487 72.8439 76.1081 72.8439 76.0607C72.8439 76.0133 72.9321 75.9727 73.0407 75.9727C73.1494 75.9727 73.2376 76.0133 73.2376 76.0607Z" fill="#B9C121"/>
<path d="M73.0883 76.0679C73.0883 75.8986 73.0612 75.3705 73.0544 75.3434C73.0408 75.3163 73.0068 75.2892 72.9593 75.296C72.905 75.3027 72.8846 75.3366 72.8846 75.3637C72.8846 75.3908 72.905 75.4043 72.9186 75.4246C72.9322 75.4382 73.0001 75.8986 73.0204 76.0679C73.0204 76.0679 73.034 76.0814 73.0544 76.0814C73.0747 76.0814 73.0951 76.0679 73.0951 76.0679H73.0883Z" fill="#5B4F2F"/>
<path d="M73.2852 75.4305C73.6178 75.1393 75.2064 73.2772 76.0821 73.3178C75.2064 73.196 74.8602 73.3178 74.8602 73.3178C74.8602 73.3178 73.6382 74.3268 73.6382 74.3742C73.6382 74.4216 73.2852 75.1258 73.2852 75.1258V75.4372V75.4305Z" fill="#0A7014"/>
<path d="M73.2852 75.4307C73.2308 74.7062 73.2037 72.8306 76.0821 73.3181C74.5003 73.0879 73.2852 75.4307 73.2852 75.4307Z" fill="#10A028"/>
<path d="M72.7488 75.6678C72.0496 75.9657 70.9634 75.5324 71.1059 74.2188C71.6694 74.8891 72.7488 74.3203 72.7488 75.6678Z" fill="#10A028"/>
<path d="M73.0068 76.0262C72.9932 75.8501 72.7081 75.6673 72.6741 75.647L72.7013 75.5996C72.7556 75.6335 72.9864 75.7757 72.9864 75.8975L73 76.0262H73.0068Z" fill="#10A028"/>
<path d="M71.3843 81.7003C71.235 82.4519 71.0992 83.0545 70.8344 83.0003C70.5697 82.9462 70.3049 82.2623 70.4542 81.5107C70.6036 80.7591 71.1128 80.2309 71.3775 80.2851C71.6423 80.3392 71.5337 80.9487 71.3775 81.7003H71.3843Z" fill="#E9F246"/>
<path d="M72.3279 77.9302C72.3279 78.6886 72.4433 79.1355 72.3143 79.1355C72.1853 79.1355 71.9274 78.6818 71.9274 77.9302C71.9274 77.1786 72.518 76.5015 72.6266 76.5624C72.7352 76.6234 72.3279 77.1718 72.3279 77.9302Z" fill="#E9F246"/>
<path d="M82.1921 82.961C82.1921 84.708 80.7732 86.1232 79.0217 86.1232C77.2702 86.1232 75.8513 84.708 75.8513 82.961C75.8513 81.214 77.2702 79.7988 79.0217 79.7988C80.7732 79.7988 82.1921 81.214 82.1921 82.961Z" fill="#F18409"/>
<path d="M79.9246 80.9709C80.0468 81.5193 79.4154 82.1287 78.5125 82.3251C77.6096 82.5215 76.7814 82.2439 76.6592 81.6886C76.537 81.1401 77.1683 80.5307 78.0712 80.3344C78.9742 80.138 79.8024 80.4156 79.9246 80.9709Z" fill="#F38E0A"/>
<path d="M76.3672 83.3732C76.4351 83.3462 76.4623 83.1769 76.503 83.3055C76.5438 83.4342 76.6252 83.3394 76.632 83.4342C76.6388 83.529 76.5981 83.4951 76.6388 83.5764C76.6795 83.6644 76.7067 83.7118 76.632 83.7186C76.5505 83.7186 76.4827 83.7186 76.4894 83.8066C76.4962 83.8946 76.2111 83.8066 76.2654 83.7253C76.3197 83.6576 76.3129 83.5764 76.2518 83.529C76.1907 83.4816 76.1772 83.4139 76.2315 83.3868C76.2858 83.3597 76.2926 83.3868 76.3672 83.3597V83.3732Z" fill="#C8720E"/>
<path d="M76.5641 83.5225C76.5845 83.6173 76.5438 83.7053 76.4691 83.7121C76.3944 83.7188 76.3265 83.6647 76.3061 83.5766C76.2858 83.4954 76.3333 83.4141 76.4012 83.387C76.4691 83.3667 76.5438 83.4209 76.5641 83.5225Z" fill="#97AD38"/>
<g style="mix-blend-mode:multiply">
<path d="M81.9884 82.9544C81.9884 82.0065 81.5335 81.1668 80.8207 80.6387C81.1805 81.1194 81.391 81.7153 81.391 82.3653C81.391 83.6519 80.5491 84.742 79.3815 85.1145C79.4562 83.8347 78.3564 82.6023 76.7678 82.2638L76.279 84.566C76.8289 85.5004 77.8472 86.1234 79.0081 86.1234C79.0217 86.1234 79.0352 86.1234 79.0488 86.1234C79.1031 86.0354 79.1574 85.9406 79.1982 85.8458C80.746 85.7848 81.9748 84.5186 81.9748 82.9612L81.9884 82.9544Z" fill="#C9C9C9"/>
</g>
<path d="M77.6775 82.6895C78.723 83.6442 79.0217 85.4792 78.0645 86.522C77.1073 87.5647 75.2471 87.4158 74.2017 86.461L77.6775 82.6895Z" fill="#E2770C"/>
<path d="M78.0916 84.3624C77.8336 85.6219 76.6456 86.7188 75.4372 86.8204C74.2288 86.922 73.4616 85.9808 73.7128 84.7213C73.9708 83.4619 75.1588 82.3649 76.3673 82.2634C77.5757 82.1618 78.3496 83.103 78.0916 84.3624Z" fill="#F18409"/>
<path d="M77.9966 84.3695C77.7522 85.5748 76.6117 86.6243 75.4576 86.7191C74.3035 86.8139 73.5635 85.9133 73.8079 84.708C74.0523 83.5028 75.1928 82.4532 76.3469 82.3584C77.501 82.2636 78.241 83.1642 77.9898 84.3695H77.9966Z" fill="#F9E8BD"/>
<path d="M77.7522 84.3892C77.5349 85.4523 76.5302 86.3799 75.5119 86.4612C74.4935 86.5424 73.8418 85.7502 74.059 84.6871C74.2763 83.624 75.281 82.6964 76.2994 82.6151C77.3177 82.5339 77.9694 83.3261 77.7522 84.3892Z" fill="#F9DFA4"/>
<path d="M76.0142 84.5322C76.0007 84.5999 75.9396 84.654 75.8785 84.6608C75.8174 84.6608 75.7766 84.6202 75.7902 84.5525C75.8038 84.4848 75.8649 84.4306 75.926 84.4238C75.9871 84.4238 76.0278 84.4645 76.0142 84.5322Z" fill="#E7D39F"/>
<path d="M75.1181 85.9196C75.0435 86.0551 74.8737 86.1025 74.7448 86.0144C74.7244 86.0009 74.704 85.9806 74.6837 85.967C74.6633 85.9535 74.6429 85.9332 74.6226 85.9196C74.5071 85.8181 74.5275 85.642 74.6497 85.5472L75.6273 84.7821C75.6748 84.7482 75.7427 84.8024 75.7088 84.8498L75.1181 85.9196Z" fill="#EF9B20"/>
<path d="M74.575 85.4063C74.4528 85.4876 74.3103 85.4334 74.2831 85.2641C74.2831 85.237 74.2763 85.2099 74.2695 85.1761C74.2695 85.149 74.2695 85.1151 74.2695 85.0881C74.256 84.912 74.3781 84.7563 74.5071 84.7359L75.5866 84.5938C75.6409 84.5938 75.6477 84.6818 75.6001 84.7156L74.5818 85.3995L74.575 85.4063Z" fill="#EF9B20"/>
<path d="M74.5411 84.5584C74.4121 84.5584 74.3578 84.4162 74.4393 84.2402C74.4528 84.2131 74.4664 84.1792 74.4868 84.1521C74.5004 84.1183 74.5207 84.0912 74.5343 84.0641C74.6293 83.8881 74.7991 83.8068 74.8941 83.8677L75.668 84.4094C75.702 84.4365 75.6545 84.5381 75.6069 84.5381L74.5479 84.5719L74.5411 84.5584Z" fill="#EF9B20"/>
<path d="M75.0231 83.7053C74.9416 83.6309 74.9892 83.448 75.1521 83.3261C75.1792 83.3058 75.2064 83.2855 75.2335 83.2652C75.2607 83.2449 75.2879 83.2246 75.315 83.2043C75.4847 83.0891 75.6409 83.1162 75.6612 83.2381L75.8242 84.247C75.831 84.2944 75.7427 84.3621 75.7088 84.3283L75.0163 83.6986L75.0231 83.7053Z" fill="#EF9B20"/>
<path d="M75.8445 83.171C75.8445 83.0423 75.9735 82.9001 76.1568 82.8798C76.184 82.8798 76.2179 82.8798 76.2451 82.873C76.2722 82.873 76.3062 82.873 76.3333 82.873C76.5098 82.873 76.5913 82.9882 76.5302 83.1236L76.0278 84.2205C76.0007 84.2747 75.9056 84.2815 75.9056 84.2273L75.8445 83.1778V83.171Z" fill="#EF9B20"/>
<path d="M76.6863 83.1575C76.761 83.0288 76.9307 82.9746 77.0597 83.0627C77.0801 83.0762 77.1005 83.0965 77.1208 83.1101C77.1412 83.1236 77.1616 83.1439 77.1819 83.1642C77.2973 83.2658 77.277 83.4419 77.1548 83.5367L76.1772 84.3018C76.1297 84.3357 76.0618 84.2815 76.0957 84.2341L76.6863 83.1642V83.1575Z" fill="#EF9B20"/>
<path d="M77.2294 83.6719C77.3584 83.5906 77.4942 83.6448 77.5213 83.8141C77.5213 83.8412 77.5281 83.8683 77.5349 83.9021C77.5349 83.9292 77.5349 83.9631 77.5417 83.9901C77.5553 84.1662 77.4331 84.3219 77.3041 84.3423L76.2247 84.4844C76.1704 84.4844 76.1636 84.3964 76.2111 84.3626L77.2294 83.6787V83.6719Z" fill="#EF9B20"/>
<path d="M77.2634 84.5176C77.3924 84.5176 77.4467 84.6598 77.3652 84.8358C77.3517 84.8697 77.3381 84.8968 77.3245 84.9306C77.3109 84.9577 77.2906 84.9916 77.277 85.0186C77.1819 85.1947 77.0122 85.276 76.9172 85.215L76.15 84.6801C76.1161 84.653 76.1636 84.5514 76.2111 84.5514L77.2702 84.5176H77.2634Z" fill="#EF9B20"/>
<path d="M76.7814 85.3723C76.8628 85.4468 76.8153 85.6296 76.6524 85.7515C76.6252 85.7718 76.5981 85.7921 76.5709 85.8125C76.5438 85.8328 76.5166 85.8531 76.4895 85.8734C76.3197 85.9885 76.1636 85.9614 76.1432 85.8395L75.9803 84.8306C75.9735 84.7832 76.0618 84.7155 76.0957 84.7494L76.7882 85.3791L76.7814 85.3723Z" fill="#EF9B20"/>
<path d="M75.96 85.9062C75.9667 86.0349 75.831 86.1771 75.6477 86.1974C75.6205 86.1974 75.5866 86.1974 75.5594 86.2041C75.5323 86.2041 75.4983 86.2041 75.4712 86.2041C75.2947 86.2041 75.2132 86.089 75.2743 85.9536L75.7767 84.8567C75.8038 84.8025 75.8989 84.7957 75.8989 84.8499L75.96 85.8994V85.9062Z" fill="#EF9B20"/>
<path d="M75.8989 84.5741L75.9057 84.54L75.9126 84.5059L75.8989 84.5741Z" fill="#EF9B20"/>
<path d="M85.4914 50.3164H70.3591V64.0688H85.4914V50.3164Z" fill="#FF981D"/>
<path d="M71.6626 55.2874C71.6626 54.6103 71.7984 54.0821 72.0835 53.7029C72.3618 53.3237 72.6741 53.0732 73.0204 52.9513C73.3666 52.8227 73.6857 52.7617 73.9844 52.7617C74.575 52.7617 75.1113 52.9581 75.5933 53.3576C76.0753 53.7503 76.3129 54.3936 76.3129 55.2874C76.3129 55.6598 76.245 56.039 76.1025 56.425C75.9599 56.8109 75.7155 57.1359 75.3693 57.4068C75.0231 57.6776 74.5614 57.8131 73.9844 57.8131C73.7264 57.8131 73.4548 57.7724 73.1901 57.6912C72.9253 57.6099 72.6741 57.4745 72.4433 57.2781C72.2125 57.0818 72.0224 56.8177 71.8798 56.4859C71.7373 56.1541 71.6626 55.7614 71.6626 55.2874ZM72.9932 55.2874C72.9932 55.8156 73.095 56.2015 73.3055 56.4453C73.5092 56.689 73.74 56.8109 73.9844 56.8109C74.2288 56.8109 74.4596 56.689 74.6633 56.4453C74.8669 56.2015 74.9687 55.8156 74.9687 55.2874C74.9687 54.8947 74.9144 54.5832 74.799 54.3597C74.6904 54.1363 74.5614 53.9738 74.4053 53.8857C74.2559 53.7977 74.1134 53.7571 73.9776 53.7571C73.8418 53.7571 73.6925 53.7977 73.5431 53.8857C73.3937 53.9738 73.2648 54.1295 73.1493 54.3597C73.0407 54.5832 72.9864 54.8947 72.9864 55.2874H72.9932ZM73.5499 61.7675L79.1982 52.9242H81.228L75.573 61.7675H73.5431H73.5499ZM78.6483 59.4043C78.6483 58.5173 78.8927 57.874 79.3747 57.4745C79.8567 57.075 80.393 56.8786 80.9836 56.8786C81.5743 56.8786 82.1038 57.075 82.5858 57.4745C83.0678 57.874 83.3122 58.5173 83.3122 59.4043C83.3122 60.0273 83.19 60.5216 82.9456 60.9008C82.7012 61.2799 82.4025 61.544 82.0427 61.6998C81.6897 61.8555 81.3299 61.93 80.9836 61.93C80.6374 61.93 80.2776 61.8555 79.9246 61.6998C79.5648 61.544 79.2661 61.2799 79.0217 60.9008C78.7773 60.5216 78.6551 60.0205 78.6551 59.4043H78.6483ZM79.9925 59.4043C79.9925 59.9122 80.0943 60.2981 80.2912 60.5487C80.488 60.806 80.7189 60.9346 80.9836 60.9346C81.1194 60.9346 81.262 60.894 81.4113 60.806C81.5607 60.7179 81.6965 60.5622 81.8051 60.3387C81.9137 60.1085 81.968 59.8038 81.968 59.4111C81.968 58.8694 81.8662 58.4834 81.6625 58.2397C81.4521 58.0027 81.2348 57.8808 80.9836 57.8808C80.7053 57.8808 80.4745 58.0162 80.2776 58.2803C80.0875 58.5444 79.9857 58.9236 79.9857 59.4111L79.9925 59.4043Z" fill="#F5F5F5"/>
<path d="M102.959 84.9582C103.285 84.9582 103.543 84.6941 103.543 84.3691V71.7204C103.543 70.8198 103.366 69.926 103.027 69.0932L102.151 66.9534C101.757 65.9987 101.56 64.9762 101.56 63.947V59.6202C101.56 59.566 101.52 59.5254 101.465 59.5254H99.7071C99.6528 59.5254 99.6121 59.566 99.6121 59.6202V63.947C99.6121 64.9762 99.4084 65.9987 99.0215 66.9534L98.1457 69.0932C97.8063 69.926 97.623 70.8198 97.623 71.7204V84.3691C97.623 84.6941 97.8877 84.9582 98.2136 84.9582H102.973H102.959Z" fill="#AF6E0E"/>
<path d="M103.543 72.9453H97.6094V80.2786H103.543V72.9453Z" fill="#F5F5F5"/>
<path d="M103.543 73.6562H97.6094V79.5405H103.543V73.6562Z" fill="#C90505"/>
<path d="M101.635 59.4374C101.615 59.4916 101.56 59.5255 101.499 59.5255H99.6664C99.6053 59.5255 99.551 59.4916 99.5306 59.4374L99.3338 58.9702C99.2591 58.8009 99.3881 58.6113 99.5714 58.6113H101.601C101.785 58.6113 101.913 58.8009 101.839 58.9702L101.642 59.4374H101.635Z" fill="#DDB16B"/>
<g opacity="0.33">
<path d="M98.8857 84.0382L98.8042 71.376C98.8042 70.8005 98.8178 69.8999 99.1436 68.7555L99.4899 67.6857C99.517 67.5977 99.4491 67.4961 99.3541 67.4961H99.3066C99.1844 67.4961 99.0825 67.5706 99.035 67.6721L98.553 68.7623C98.2136 69.5952 97.9149 70.4822 97.9149 71.3896V84.0382C97.9149 84.3633 98.1796 84.6273 98.4987 84.6273H99.4763C99.1504 84.6273 98.8857 84.3633 98.8857 84.0382Z" fill="white"/>
</g>
<g opacity="0.33">
<path d="M99.8836 60.4266C99.8904 60.3318 100.033 60.3318 100.047 60.4266C100.081 60.711 100.101 60.9954 100.114 61.2797C100.148 61.7605 100.155 62.2413 100.155 62.7153C100.155 63.196 100.142 63.6768 100.114 64.1575C100.101 64.4419 100.074 64.7263 100.047 65.0107C100.033 65.1055 99.8972 65.1055 99.8836 65.0107C99.8497 64.7263 99.8293 64.4419 99.8158 64.1575C99.7886 63.6768 99.775 63.196 99.775 62.7153C99.775 62.2345 99.7886 61.7537 99.8158 61.2797C99.8361 60.9954 99.8565 60.711 99.8836 60.4266Z" fill="white"/>
</g>
<path d="M102.864 75.248H97.623V76.3044H102.864V75.248Z" fill="#DDB16B"/>
<path d="M98.0371 80.9635L97.9421 80.5775C100.569 80.0765 100.821 77.8081 100.861 77.5508L101.594 77.6862C101.357 79.0472 100.128 80.5708 98.0371 80.9635Z" fill="#6F0000"/>
<path d="M96.2449 79.3455C95.4438 79.6773 94.5273 79.2981 94.1946 78.4991C93.862 77.7001 94.2422 76.786 95.0432 76.4542C95.8443 76.1224 96.7608 76.5016 97.0935 77.2938C97.4261 78.0928 97.0459 79.007 96.2449 79.3388V79.3455Z" fill="#A5D013"/>
<path d="M97.2021 77.7407C97.0392 78.0521 96.7676 78.3027 96.4214 78.4516C95.6203 78.7834 94.7038 78.4042 94.3712 77.612C94.3101 77.4698 94.2762 77.3141 94.2626 77.1719C94.0521 77.5714 94.0114 78.0589 94.2015 78.5058C94.5341 79.3048 95.4506 79.684 96.2517 79.3522C96.9034 79.0814 97.2768 78.4178 97.2089 77.7474L97.2021 77.7407Z" fill="#8DB002"/>
<path d="M97.0052 81.0516C97.7655 79.7516 96.4214 78.2483 95.05 78.8171C94.6359 78.9932 94.31 79.3317 94.1607 79.7786C93.7398 81.0584 95.0297 82.2163 96.2516 81.7085C96.5775 81.573 96.8491 81.3293 97.0052 81.0584V81.0516Z" fill="#829B03"/>
<path d="M93.6176 84.2274C94.3848 82.9273 93.0406 81.4241 91.6624 81.9929C91.2483 82.1622 90.9225 82.5075 90.7731 82.9544C90.3522 84.2342 91.6421 85.3921 92.8641 84.8842C93.1899 84.7488 93.4615 84.505 93.6176 84.2342V84.2274Z" fill="#829B03"/>
<path d="M93.5294 82.7587C94.2897 81.4586 92.9523 79.9554 91.5742 80.5242C91.1601 80.6934 90.8342 81.0388 90.6849 81.4857C90.264 82.7654 91.5538 83.9233 92.7758 83.4155C93.1017 83.2801 93.3732 83.0363 93.5294 82.7654V82.7587Z" fill="#829B03"/>
<path d="M95.9869 84.7489C96.754 83.4488 95.4098 81.9456 94.0317 82.5144C93.6176 82.6837 93.2917 83.029 93.1424 83.4759C92.7215 84.7557 94.0113 85.9136 95.2333 85.4057C95.5592 85.2703 95.8307 85.0265 95.9869 84.7557V84.7489Z" fill="#829B03"/>
<path d="M99.5782 84.153C100.311 82.9003 99.0215 81.458 97.7045 82.0065C97.3039 82.169 96.9917 82.5008 96.8491 82.9274C96.4486 84.1598 97.6841 85.2635 98.8586 84.776C99.1709 84.6473 99.4288 84.4103 99.5782 84.1462V84.153Z" fill="#829B03"/>
<path d="M99.1165 81.8653C99.7682 80.7548 98.6209 79.4683 97.4465 79.9558C97.0934 80.1048 96.8151 80.396 96.6861 80.7752C96.3263 81.8721 97.4261 82.8607 98.4716 82.4273C98.7499 82.3122 98.9807 82.1023 99.1165 81.8653Z" fill="#829B03"/>
<path d="M94.4053 82.738C93.6043 83.0698 92.6878 82.6906 92.3551 81.8916C92.0225 81.0926 92.4026 80.1785 93.2037 79.8467C94.0048 79.5149 94.9213 79.8941 95.2539 80.6931C95.5866 81.4921 95.2064 82.4062 94.4053 82.738Z" fill="#829B03"/>
<path d="M95.3624 81.14C95.1994 81.4515 94.9279 81.702 94.5816 81.851C93.7806 82.1828 92.8641 81.8036 92.5314 81.0046C92.4703 80.8624 92.4364 80.7134 92.416 80.5645C92.2056 80.964 92.1648 81.4515 92.3549 81.8984C92.6876 82.6974 93.6041 83.0766 94.4051 82.7448C95.0569 82.4739 95.4302 81.8104 95.3624 81.14Z" fill="#829B03"/>
<path d="M98.5192 81.2283C97.7181 81.5601 96.8016 81.1809 96.4689 80.3819C96.1363 79.5829 96.5165 78.6688 97.3175 78.337C98.1186 78.0052 99.0351 78.3844 99.3678 79.1766C99.7004 79.9757 99.3202 80.8898 98.5192 81.2216V81.2283Z" fill="#B8DF20"/>
<path d="M99.4764 79.6235C99.3134 79.9349 99.0419 80.1855 98.6956 80.3345C97.8946 80.6662 96.9781 80.2871 96.6454 79.4948C96.5843 79.3526 96.5504 79.1969 96.5368 79.0547C96.3263 79.4542 96.2856 79.9417 96.4757 80.3886C96.8084 81.1876 97.7248 81.5668 98.5259 81.235C99.1776 80.9642 99.551 80.3006 99.4831 79.6302L99.4764 79.6235Z" fill="#9FB202"/>
<path d="M97.528 86.1501C96.7269 86.4819 95.8104 86.1027 95.4777 85.3037C95.1451 84.5047 95.5253 83.5906 96.3263 83.2588C97.1274 82.927 98.0439 83.3062 98.3766 84.1052C98.7092 84.9042 98.329 85.8183 97.528 86.1501Z" fill="#99C10E"/>
<path d="M98.4852 84.5463C98.3223 84.8577 98.0507 85.1083 97.7045 85.2572C96.9034 85.589 95.9869 85.2098 95.6543 84.4108C95.5932 84.2686 95.5592 84.1197 95.5457 83.9707C95.3352 84.3702 95.2945 84.8577 95.4845 85.3046C95.8172 86.1036 96.7337 86.4828 97.5348 86.151C98.1865 85.8802 98.5599 85.2166 98.492 84.5463H98.4852Z" fill="#829B03"/>
<path d="M90.3047 85.6286C89.5036 85.9604 88.5871 85.5812 88.2545 84.7822C87.9218 83.9832 88.302 83.0691 89.1031 82.7373C89.9041 82.4055 90.8206 82.7847 91.1533 83.5837C91.4859 84.3827 91.1058 85.2968 90.3047 85.6286Z" fill="#99C10E"/>
<path d="M91.2687 84.0248C91.1058 84.3295 90.8342 84.5868 90.488 84.7358C89.6869 85.0675 88.7704 84.6884 88.4378 83.8894C88.3767 83.7472 88.3427 83.5914 88.3292 83.4492C88.1187 83.8487 88.078 84.3363 88.2681 84.7832C88.6007 85.5822 89.5172 85.9614 90.3183 85.6296C90.97 85.3587 91.3434 84.6951 91.2755 84.0248H91.2687Z" fill="#829B03"/>
<path d="M93.6652 86.6247C92.8641 86.9565 91.9476 86.5773 91.6149 85.7783C91.2823 84.9793 91.6625 84.0652 92.4635 83.7334C93.2646 83.4016 94.1811 83.7808 94.5138 84.5798C94.8464 85.3788 94.4662 86.2929 93.6652 86.6247Z" fill="#829B03"/>
<path d="M94.6224 85.0267C94.4595 85.3382 94.1879 85.5887 93.8417 85.7377C93.0406 86.0695 92.1241 85.6903 91.7915 84.8913C91.7304 84.7491 91.6964 84.6001 91.6829 84.4512C91.4724 84.8507 91.4317 85.3382 91.6218 85.7851C91.9544 86.5841 92.8709 86.9633 93.672 86.6315C94.3237 86.3607 94.6971 85.6971 94.6292 85.0267H94.6224Z" fill="#829B03"/>
<path d="M91.1942 83.6853C90.3931 84.0171 89.4766 83.6379 89.144 82.8389C88.8113 82.0399 89.1915 81.1257 89.9926 80.7939C90.7937 80.4622 91.7102 80.8413 92.0428 81.6404C92.3755 82.4394 91.9953 83.3535 91.1942 83.6853Z" fill="#B8DF20"/>
<path d="M92.1512 82.0814C91.9883 82.3929 91.7167 82.6502 91.3705 82.7924C90.5694 83.1242 89.653 82.745 89.3203 81.946C89.2592 81.8038 89.2253 81.6548 89.2049 81.5059C88.9944 81.9054 88.9537 82.3929 89.1438 82.8398C89.4764 83.6388 90.3929 84.018 91.194 83.6862C91.8457 83.4153 92.2191 82.7518 92.1512 82.0814Z" fill="#9FB202"/>
<path d="M96.7676 83.4548C95.9665 83.7866 95.0501 83.4074 94.7174 82.6084C94.3848 81.8094 94.7649 80.8953 95.566 80.5635C96.3671 80.2317 97.2836 80.6109 97.6162 81.4099C97.9489 82.2089 97.5687 83.123 96.7676 83.4548Z" fill="#A5D013"/>
<path d="M97.7248 81.8509C97.5619 82.1624 97.2903 82.413 96.9441 82.5619C96.143 82.8937 95.2265 82.5145 94.8939 81.7155C94.8328 81.5733 94.7989 81.4244 94.7853 81.2754C94.5748 81.6749 94.5341 82.1624 94.7242 82.6093C95.0568 83.4083 95.9733 83.7808 96.7744 83.4557C97.4261 83.1849 97.7995 82.5213 97.7316 81.8509H97.7248Z" fill="#829B03"/>
<path d="M96.7676 83.4548C95.9665 83.7866 95.0501 83.4074 94.7174 82.6084C94.3848 81.8094 94.7649 80.8953 95.566 80.5635C96.3671 80.2317 97.2836 80.6109 97.6162 81.4099C97.9489 82.2089 97.5687 83.123 96.7676 83.4548Z" fill="#A5D013"/>
<path d="M97.7248 81.8509C97.5619 82.1624 97.2903 82.413 96.9441 82.5619C96.143 82.8937 95.2265 82.5145 94.8939 81.7155C94.8328 81.5733 94.7989 81.4244 94.7853 81.2754C94.5748 81.6749 94.5341 82.1624 94.7242 82.6093C95.0568 83.4083 95.9733 83.7808 96.7744 83.4557C97.4261 83.1849 97.7995 82.5213 97.7316 81.8509H97.7248Z" fill="#8DB002"/>
<path d="M94.1134 80.6594C93.4277 80.9438 92.6402 80.6187 92.3551 79.9349C92.0699 79.251 92.3958 78.4655 93.0815 78.1811C93.7671 77.8967 94.5546 78.2217 94.8398 78.9056C95.1249 79.5895 94.799 80.375 94.1134 80.6594Z" fill="#B8DF20"/>
<path d="M94.9346 79.2853C94.7921 79.5494 94.5613 79.7661 94.2626 79.8947C93.5769 80.1791 92.7894 79.8541 92.5043 79.1702C92.4499 79.0483 92.4228 78.9197 92.4092 78.791C92.2259 79.1296 92.192 79.5494 92.3549 79.9354C92.64 80.6193 93.4275 80.9443 94.1132 80.6599C94.6767 80.4297 94.989 79.8609 94.9346 79.2853Z" fill="#9FB202"/>
<path d="M94.2967 84.6668C93.4956 84.9986 92.5791 84.6194 92.2465 83.8271C91.9138 83.0281 92.294 82.114 93.0951 81.7822C93.8961 81.4504 94.8126 81.8296 95.1453 82.6286C95.4779 83.4276 95.0978 84.3418 94.2967 84.6736V84.6668Z" fill="#B8DF20"/>
<path d="M95.2537 83.0697C95.0908 83.3812 94.8192 83.6317 94.473 83.7807C93.6719 84.1125 92.7554 83.7333 92.4228 82.9343C92.3617 82.7921 92.3277 82.6363 92.3074 82.4941C92.0969 82.8936 92.0562 83.3812 92.2463 83.8281C92.5789 84.6271 93.4954 84.9995 94.2965 84.6677C94.9482 84.3969 95.3216 83.7333 95.2537 83.0629V83.0697Z" fill="#9FB202"/>
<path d="M91.9 86.6452C91.2076 86.9364 90.4065 86.6046 90.1146 85.9139C89.8227 85.2165 90.1553 84.4242 90.8478 84.1331C91.5402 83.8419 92.3413 84.1737 92.6332 84.8644C92.9252 85.5618 92.5925 86.354 91.8933 86.6452H91.9Z" fill="#A5D013"/>
<path d="M92.7351 85.25C92.5925 85.5209 92.3617 85.7443 92.0562 85.8662C91.3569 86.1574 90.5627 85.8256 90.2707 85.1281C90.2164 84.9995 90.1893 84.8708 90.1757 84.7422C89.9924 85.0875 89.9584 85.5141 90.1214 85.9068C90.4133 86.6043 91.2076 86.9293 91.9068 86.6381C92.4771 86.4011 92.803 85.8256 92.7419 85.2433L92.7351 85.25Z" fill="#8DB002"/>
<path d="M94.3304 82.8863C94.0928 82.9811 93.8213 82.8728 93.7194 82.6358C93.6176 82.3988 93.733 82.1279 93.9706 82.0264C94.2082 81.9316 94.4798 82.0399 94.5816 82.2769C94.6835 82.5139 94.568 82.7848 94.3304 82.8863Z" fill="#DEFF3F"/>
<path d="M90.9497 81.8844C90.712 81.9859 90.4405 81.8708 90.3387 81.6338C90.2436 81.3968 90.3522 81.126 90.5898 81.0244C90.8275 80.9296 91.099 81.038 91.2008 81.275C91.3027 81.512 91.1873 81.7828 90.9497 81.8776V81.8844Z" fill="#DEFF3F"/>
<path d="M98.5531 79.5552C98.3155 79.65 98.0439 79.5416 97.9421 79.3046C97.8403 79.0677 97.9557 78.7968 98.1933 78.6952C98.4309 78.5937 98.7024 78.7088 98.8043 78.9458C98.9061 79.1828 98.7907 79.4536 98.5531 79.5552Z" fill="#DEFF3F"/>
<path d="M94.025 79.0737C93.8213 79.155 93.5905 79.0602 93.5022 78.857C93.414 78.6539 93.5158 78.4237 93.7195 78.3357C93.9231 78.2544 94.1539 78.3492 94.2422 78.5523C94.3237 78.7555 94.2286 78.9857 94.025 79.0737Z" fill="#DEFF3F"/>
<path d="M107.881 83.8474C105.593 83.7458 106.17 87.1856 103.441 85.6282C102.911 82.6963 106.082 81.9785 107.881 83.8474Z" fill="#26B326"/>
<path d="M103.937 85.8726C103.937 85.8726 104.88 86.333 105.498 85.5679C106.116 84.8095 105.892 82.6969 107.888 83.848C105.749 83.7532 106.109 86.7528 103.937 85.8726Z" fill="#198A19"/>
<path d="M104.419 84.274C105.613 83.001 105.668 80.2586 106.659 79.7305C104.296 80.9967 104.968 83.0822 104.419 84.274Z" fill="#198A19"/>
<path d="M103.434 84.9511C102.26 84.5042 101.561 80.1909 106.659 79.7305C103.753 81.5248 106.021 83.9219 103.434 84.9511Z" fill="#36C636"/>
<path d="M97.9285 84.5584C97.9285 86.0413 99.4288 87.2398 101.275 87.2398C103.122 87.2398 104.622 86.0413 104.622 84.5584C104.622 83.0755 103.122 81.877 101.275 81.877C99.4288 81.877 97.9285 83.0755 97.9285 84.5584Z" fill="#F7E821"/>
<path d="M103.468 84.5589C103.468 84.9923 103.821 85.3444 104.256 85.3444C104.69 85.3444 105.328 84.9923 105.328 84.5589C105.328 84.1255 104.697 83.7734 104.256 83.7734C103.814 83.7734 103.468 84.1255 103.468 84.5589Z" fill="#F7E821"/>
<path d="M99.069 84.5589C99.069 84.9923 98.716 85.3444 98.2815 85.3444C97.847 85.3444 97.2089 84.9923 97.2089 84.5589C97.2089 84.1255 97.8402 83.7734 98.2815 83.7734C98.7228 83.7734 99.069 84.1255 99.069 84.5589Z" fill="#F7E821"/>
<path d="M101.432 83.7738C101.432 84.3155 101.941 84.7624 102.565 84.7624C103.19 84.7624 103.706 84.3222 103.706 83.7738C103.706 83.2253 103.197 82.7852 102.565 82.7852C101.934 82.7852 101.432 83.2253 101.432 83.7738Z" fill="#F7EF83"/>
<path d="M105.111 84.6865C104.867 85.2214 104.439 85.0453 104.249 85.2823C104.052 85.5261 103.563 86.6163 102.572 86.772C103.237 86.3928 103.631 85.3026 103.957 84.9709C104.283 84.6391 104.704 85.0047 105.111 84.6797V84.6865Z" fill="#E3BD00"/>
<path d="M100.305 82.2422C98.5938 82.276 96.0955 86.4336 101.37 86.9956C99.2047 86.332 98.553 83.522 100.305 82.2422Z" fill="#E3BD00"/>
<path d="M97.3854 84.3965C97.9828 84.9382 98.7092 84.3965 98.7092 84.3965L98.5802 85.2767C98.5802 85.2767 97.3854 85.3174 97.3854 84.3965Z" fill="#E3BD00"/>
<path d="M119.714 76.645C119.198 76.11 118.404 75.9949 117.779 75.5954C116.496 74.7829 116.672 73.0765 116.672 73.0765V65.8719C116.672 65.8719 116.679 65.8245 116.706 65.8245C116.869 65.8245 116.991 65.6959 116.991 65.5334C116.991 65.3708 116.862 65.2422 116.706 65.2422H114.867C114.71 65.2422 114.581 65.3708 114.581 65.5334C114.581 65.6959 114.71 65.8245 114.867 65.8245C114.894 65.8245 114.901 65.8516 114.901 65.8719V73.0765C114.901 73.0765 115.077 74.7829 113.794 75.5954C113.163 75.9949 112.375 76.11 111.852 76.645C111.316 77.2002 110.915 78.3513 111.852 80.7009L113.292 84.6283C113.332 84.7434 113.441 84.8179 113.563 84.8179H117.996C118.118 84.8179 118.227 84.7434 118.268 84.6283L119.707 80.7009C120.644 78.3513 120.243 77.2002 119.707 76.645H119.714Z" fill="#1F663F"/>
<path d="M116.672 66.2568V65.8641C116.672 65.8641 116.679 65.8167 116.706 65.8167C116.869 65.8167 116.991 65.688 116.991 65.5255C116.991 65.363 116.862 65.2344 116.706 65.2344H114.867C114.71 65.2344 114.581 65.363 114.581 65.5255C114.581 65.688 114.71 65.8167 114.867 65.8167C114.894 65.8167 114.9 65.8438 114.9 65.8641V66.2568H116.666H116.672Z" fill="#DDB16B"/>
<g opacity="0.33">
<path d="M114.5 84.3974L112.993 80.4362C112.144 78.3033 112.171 77.2944 112.653 76.7865C112.979 76.4479 113.264 76.2719 113.658 76.0823C113.692 76.062 113.685 76.0078 113.645 76.0078C113.543 76.0078 113.441 76.0281 113.346 76.0688C112.911 76.2583 112.457 76.4141 112.124 76.7526C111.635 77.2537 111.275 78.2965 112.124 80.4294L113.631 84.3906C113.665 84.4922 113.767 84.5599 113.875 84.5599H114.744C114.636 84.5599 114.541 84.4922 114.5 84.3906V84.3974Z" fill="white"/>
</g>
<g opacity="0.33">
<path d="M115.505 73.4403C115.505 73.5486 115.416 73.6366 115.301 73.6366C115.186 73.6366 115.097 73.5486 115.097 73.4403V66.8721C115.097 66.7638 115.186 66.6758 115.301 66.6758C115.416 66.6758 115.505 66.7638 115.505 66.8721V73.4403Z" fill="white"/>
</g>
<path opacity="0.15" d="M110.44 33.5117H64.9485V72.7849L110.44 33.5117Z" fill="#F5F5F5"/>
<path d="M69.6735 42.5015C69.6735 44.4245 68.1596 45.9819 66.2859 45.9819H66.1704C64.2967 45.9819 62.7828 44.4245 62.7828 42.5015V37.5449H69.6735V42.5015Z" fill="#1F590F"/>
<path d="M76.5641 42.5023C76.5641 44.4253 75.0502 45.9827 73.1765 45.9827H73.0611C71.1942 45.9827 69.6735 44.4253 69.6735 42.5023V30.1719H76.5641V42.5023Z" fill="#D3D9DD"/>
<path d="M83.4547 42.5015C83.4547 44.4245 81.9408 45.9819 80.0671 45.9819H79.9517C78.078 45.9819 76.5641 44.4245 76.5641 42.5015V37.5449H83.4547V42.5015Z" fill="#1F590F"/>
<path d="M90.3453 42.5015C90.3453 44.4245 88.8314 45.9819 86.9577 45.9819H86.8423C84.9686 45.9819 83.4547 44.4245 83.4547 42.5015V37.5449H90.3453V42.5015Z" fill="#D3D9DD"/>
<path d="M97.2428 42.5015C97.2428 44.4245 95.7289 45.9819 93.8552 45.9819H93.7398C91.8661 45.9819 90.3522 44.4245 90.3522 42.5015V37.5449H97.2428V42.5015Z" fill="#1F590F"/>
<path d="M104.133 42.5015C104.133 44.4245 102.62 45.9819 100.746 45.9819H100.63C98.7567 45.9819 97.2428 44.4245 97.2428 42.5015V37.5449H104.133V42.5015Z" fill="#D3D9DD"/>
<path d="M111.024 42.5015C111.024 44.4245 109.51 45.9819 107.636 45.9819H107.521C105.647 45.9819 104.133 44.4245 104.133 42.5015V37.5449H111.024V42.5015Z" fill="#1F590F"/>
<path d="M117.915 42.5015C117.915 44.4245 116.401 45.9819 114.527 45.9819H114.412C112.538 45.9819 111.024 44.4245 111.024 42.5015V37.5449H117.915V42.5015Z" fill="#D3D9DD"/>
<path d="M124.805 42.5015C124.805 44.4245 123.291 45.9819 121.418 45.9819H121.302C119.429 45.9819 117.915 44.4245 117.915 42.5015V37.5449H124.805V42.5015Z" fill="#1F590F"/>
<path d="M124.805 30.1328H62.7828V38.0755H124.805V30.1328Z" fill="#318415"/>
<path d="M76.5641 30.1719H69.6735V38.0807H76.5641V30.1719Z" fill="#F5F5F5"/>
<path d="M90.3454 30.1719H83.4548V38.0807H90.3454V30.1719Z" fill="#F5F5F5"/>
<path d="M104.133 30.1719H97.2428V38.0807H104.133V30.1719Z" fill="#F5F5F5"/>
<path d="M117.915 30.1719H111.024V38.0807H117.915V30.1719Z" fill="#F5F5F5"/>
<path d="M114.113 81.8096C113.923 81.8096 113.746 81.7215 113.624 81.5726C113.509 81.4236 113.482 81.2205 113.448 81.0309C113.4 80.8006 113.244 80.6178 113.034 80.5298C112.871 80.4621 112.701 80.4079 112.579 80.286C112.457 80.1641 112.389 79.9949 112.389 79.8256V78.8167C112.389 78.6406 112.457 78.4781 112.579 78.3562C112.701 78.2343 112.877 78.1802 113.04 78.1125C113.278 78.0109 113.441 77.7874 113.461 77.5234C113.475 77.327 113.482 77.1171 113.59 76.9546C113.699 76.7921 113.889 76.6973 114.086 76.6973H117.44C117.636 76.6973 117.82 76.7921 117.935 76.9546C118.044 77.1171 118.051 77.327 118.064 77.5234C118.084 77.7942 118.261 78.0177 118.499 78.1125C118.662 78.1734 118.824 78.2343 118.947 78.3495C119.069 78.4713 119.137 78.6406 119.137 78.8099V79.8188C119.137 79.9881 119.069 80.1574 118.947 80.2793C118.824 80.4011 118.648 80.4553 118.485 80.523C118.275 80.611 118.118 80.8006 118.071 81.0309C118.037 81.2205 118.01 81.4168 117.894 81.5658C117.779 81.7148 117.596 81.8028 117.406 81.8028H114.113V81.8096Z" fill="#DDB16B"/>
<path d="M117.711 77.7476C117.63 77.4158 117.419 77.084 117.08 77.084H114.446C114.106 77.084 113.896 77.4158 113.814 77.7476C113.74 78.032 113.556 78.269 113.312 78.4112C113.04 78.5669 112.776 78.7971 112.776 79.1154V79.5419C112.776 79.8534 113.04 80.0904 113.312 80.2462C113.516 80.3613 113.685 80.5509 113.774 80.7743C113.909 81.0993 114.14 81.4311 114.493 81.4311H117.039C117.392 81.4311 117.63 81.1061 117.759 80.7811C117.847 80.5576 118.01 80.368 118.213 80.2462C118.485 80.0836 118.757 79.8534 118.757 79.5352V79.1086C118.757 78.7971 118.492 78.5601 118.22 78.4044C117.976 78.2622 117.786 78.0252 117.718 77.7408L117.711 77.7476Z" fill="#63440D"/>
<path d="M112.144 86.0769C112.144 86.3206 111.947 86.517 111.703 86.517C111.459 86.517 111.262 86.3206 111.262 86.0769C111.262 85.8331 111.459 85.6367 111.703 85.6367C111.947 85.6367 112.144 85.8331 112.144 86.0769Z" fill="#822F0B"/>
<path d="M112.769 79.0888C112.599 79.0482 112.484 78.8992 112.484 78.7232V78.6825C112.484 78.6825 112.667 78.1476 113.156 78.0393C112.769 77.5856 112.008 77.9851 112.008 77.9851C112.008 77.9851 112.07 77.4028 111.676 76.834C111.343 77.247 111.357 77.9851 111.357 77.9851C111.357 77.9851 110.848 77.5111 110.155 77.809C110.725 77.8971 110.915 78.6825 110.915 78.6825V78.7164C110.915 78.8924 110.793 79.0414 110.624 79.082C109.008 79.468 107.827 80.7884 107.827 83.1854C107.827 85.3184 109.558 86.2663 111.696 86.2663C113.835 86.2663 115.566 85.3184 115.566 83.1854C115.566 80.8222 114.385 79.4815 112.769 79.0888Z" fill="#D10202"/>
<path d="M113.957 80.207C116.72 82.99 114.364 86.7413 110.624 85.8204C112.769 85.7188 115.26 82.279 113.957 80.207Z" fill="#B20723"/>
<path d="M111.683 80.9234C111.75 81.1401 111.574 81.3839 111.289 81.438C110.623 81.5599 109.945 81.5599 109.279 81.438C108.994 81.3839 108.818 81.1401 108.886 80.9234C108.913 80.8422 108.933 80.7541 108.96 80.6729C109.028 80.4562 109.259 80.3343 109.483 80.3749C110.013 80.4765 110.556 80.4765 111.085 80.3749C111.309 80.3343 111.54 80.4562 111.608 80.6729C111.635 80.7541 111.655 80.8422 111.683 80.9234Z" fill="#F5425E"/>
<path d="M112.823 78.0126C112.823 78.0126 112.171 78.4731 112.334 78.9606C112.456 79.3195 113.373 79.157 113.672 79.807C113.027 79.6039 111.744 79.6648 111.696 79.0215C111.628 78.0533 112.823 78.0059 112.823 78.0059V78.0126Z" fill="#B20723"/>
<path d="M117.175 78.5195H114.344V79.0883H117.175V78.5195Z" fill="#DDB16B"/>
<path d="M116.489 79.5078H115.043V80.0766H116.489V79.5078Z" fill="#DDB16B"/>
<g style="mix-blend-mode:multiply" opacity="0.29">
<path d="M36.5713 30.1113H30.1287V112.206H36.5713V30.1113Z" fill="#020000"/>
</g>
<path d="M117.025 18.4449H37.9087V1.46936C37.9087 0.656811 38.4246 0 39.0696 0H115.871C116.509 0 117.032 0.656811 117.032 1.46936V18.4449H117.025Z" fill="#EA2700"/>
<path d="M46.6255 10.9552C46.6255 11.9641 45.804 12.7834 44.7925 12.7834C43.781 12.7834 42.9595 11.9641 42.9595 10.9552C42.9595 9.94627 43.781 9.12695 44.7925 9.12695C45.804 9.12695 46.6255 9.94627 46.6255 10.9552Z" fill="#F5F5F5"/>
<path d="M112.47 10.9552C112.47 11.9641 111.649 12.7834 110.637 12.7834C109.626 12.7834 108.804 11.9641 108.804 10.9552C108.804 9.94627 109.626 9.12695 110.637 9.12695C111.649 9.12695 112.47 9.94627 112.47 10.9552Z" fill="#F5F5F5"/>
<path d="M51.9412 4.71875L53.7809 12.1333H53.8149L55.675 4.71875H58.1936V15.309H56.2792V12.6817L56.4625 7.84707H56.4286L54.4462 15.309H53.1631L51.208 7.90124H51.174L51.3573 12.6817V15.309H49.4429V4.71875H51.9479H51.9412Z" fill="#F5F5F5"/>
<path d="M66.2587 13.2505H63.6722L63.2105 15.309H61.2893L63.9437 4.71875H65.9939L68.6552 15.309H66.7339L66.2655 13.2505H66.2587ZM64.0931 11.3613H65.8378L64.9824 7.56944H64.9485L64.0931 11.3613Z" fill="#F5F5F5"/>
<path d="M73.4481 11.253V15.309H71.5336V4.71875H74.6904C75.6409 4.71875 76.3944 5.00314 76.9511 5.57193C77.5078 6.14071 77.7861 6.91263 77.7861 7.90124C77.7861 8.44971 77.6707 8.91692 77.4467 9.30965C77.2226 9.70239 76.89 10.0206 76.4555 10.2712C76.9579 10.454 77.3245 10.7655 77.5417 11.1921C77.759 11.6186 77.8744 12.1536 77.8744 12.7968V13.4672C77.8744 13.7448 77.9083 14.0563 77.9694 14.4152C78.0305 14.7673 78.1459 15.0178 78.3021 15.1736V15.3157H76.3401C76.1907 15.1668 76.0889 14.8959 76.0414 14.5167C75.9939 14.1376 75.9735 13.7787 75.9735 13.4537V12.8104C75.9735 12.3093 75.8717 11.9234 75.6612 11.6525C75.4576 11.3884 75.1521 11.253 74.7515 11.253H73.4345H73.4481ZM73.4481 9.36382H74.704C75.091 9.36382 75.3829 9.24871 75.5865 9.02526C75.7902 8.80181 75.892 8.47679 75.892 8.05697C75.892 7.63716 75.7902 7.27828 75.5798 7.0142C75.3693 6.75012 75.0774 6.6147 74.6972 6.6147H73.4481V9.36382Z" fill="#F5F5F5"/>
<path d="M84.2694 11.0634H83.3869V15.309H81.4724V4.71875H83.3869V8.86275H84.0386L85.8444 4.71875H88.2137L85.6679 9.51279L88.4309 15.309H86.1092L84.2694 11.0634Z" fill="#F5F5F5"/>
<path d="M96.3943 10.779H93.1696V13.4198H96.9645V15.309H91.2551V4.71875H96.9781V6.60793H93.1696V8.88307H96.3943V10.7722V10.779Z" fill="#F5F5F5"/>
<path d="M105.987 6.60793H103.821V15.309H101.907V6.60793H99.7547V4.71875H105.987V6.60793Z" fill="#F5F5F5"/>
<path d="M87.7453 113.35C87.5348 112.084 87.3719 110.269 88.1458 109.057C88.2612 110.134 89.4764 110.73 90.0399 111.881C90.1078 111.549 90.2979 111.176 90.3997 110.845C90.5015 111.203 90.6033 111.373 91.0107 111.569C90.6577 109.91 90.9428 108.786 92.2462 107.764C92.0426 108.718 92.9387 109.348 93.4207 110.581C93.4682 110.364 93.6719 110.113 93.7058 109.89C93.7534 110.039 93.9299 110.242 93.991 110.411C94.2693 109.578 94.9889 109.016 96.3331 108.576C96.3195 109.856 97.881 110.621 98.3154 112.077C98.2747 111.522 98.2543 110.892 98.6617 110.404C98.9332 110.689 99.293 110.967 99.3677 111.312C100.766 110.384 100.997 109.423 100.637 107.974C102.667 108.393 103.896 110.702 104.269 111.339C104.269 110.784 104.581 110.019 105.104 109.68C104.887 110.256 104.996 110.96 105.702 111.427C105.851 110.303 107.127 109.05 107.025 107.798C108.573 108.475 108.329 109.687 109.11 110.601C109.123 110.249 109.307 109.958 109.408 109.619C109.402 109.944 109.517 110.289 109.531 110.614C109.856 110.107 110.074 109.504 110.501 109.057C110.963 110.296 112.504 110.364 112.986 111.711C113.624 111.014 113.163 110.086 114.378 109.517C114.398 110.174 115.552 110.391 115.817 111.305C115.892 110.906 116.068 110.493 116.38 110.14C116.462 110.581 116.686 111 117.127 111.332C117.609 109.964 119.076 108.922 119.754 107.628C120.834 108.671 119.945 109.91 120.766 111.055C121.044 110.33 121.526 109.646 122.151 109.023C122.456 109.463 122.857 109.876 123.312 110.269C123.006 109.511 123.814 109.213 123.624 108.427C124.731 109.247 124.968 110.418 126.041 111.183C125.898 110.391 126.441 109.578 127.08 109.098C127.046 109.504 127.331 109.856 127.684 110.614C127.881 109.531 128.987 108.272 130.847 107.845C130.006 108.84 130.718 109.883 130.657 111.149C130.976 110.486 131.669 110.073 131.703 109.172C132.422 109.551 132.619 110.12 132.803 110.669C132.803 108.888 134.099 108.536 133.346 107.256C135.369 107.798 135.498 110.858 136.536 111.088C136.258 110.113 136.292 109.308 137.344 108.718C137.378 109.375 137.935 109.673 137.935 110.648C138.132 109.829 139.551 109.416 140.42 108.624C141.112 109.558 139.951 109.87 140.576 111.684C140.589 110.323 141.547 110.222 141.73 109.416C143.074 110.452 142.232 112.043 143.074 113.377H87.7181L87.7453 113.35Z" fill="#1E732B"/>
<path d="M143.101 113.349C142.925 112.584 143.692 111.582 142.735 110.593C142.49 111.203 141.655 111.65 141.526 112.293C141.173 111.995 141.078 111.595 141.241 111.216C140.725 111.433 140.311 111.731 140.026 112.069C139.157 111.656 138.946 110.979 139.116 110.343C138.342 110.925 137.711 111.25 137.67 112.367C137.67 112.333 137.412 111.02 136.699 110.654C136.516 111.054 136.156 111.419 135.864 111.792C135.674 110.898 135.097 110.187 134.439 109.401C133.821 110.221 134.018 111.027 133.8 111.887C133.624 111.636 133.352 111.582 133.122 111.392C133.027 111.575 132.769 111.792 132.708 111.961C132.782 111.06 131.513 110.397 131.289 109.55C130.854 109.943 130.508 110.661 130.474 111.094C130.128 110.498 129.999 110.011 129.062 109.815C129.659 110.525 129.225 111.413 128.709 112.178C128.553 111.941 128.166 111.717 128.03 111.46C127.684 111.616 127.616 111.914 127.521 112.11C127.215 111.088 125.647 110.566 125.79 109.726C125.043 110.058 124.717 110.999 124.608 111.616C124.317 111.176 123.658 111.148 123.237 110.715C122.925 111.413 123.325 111.846 122.735 112.205C122.735 112.205 121.044 110.627 121.323 109.815C120.08 110.397 119.775 111.616 119.822 112.557C119.449 111.677 118.587 110.898 118.22 110.024C117.338 110.41 117.636 111.467 116.828 112.212C116.496 112.151 116.299 111.88 116.238 111.677C115.776 112.008 115.763 112.218 115.776 112.523C115.355 112.381 115.498 111.778 115.111 111.71C115.213 112.002 114.663 112.482 114.622 112.733C114.418 111.541 113.366 111.297 112.776 110.539C112.219 111.108 112.66 111.392 111.879 112.103C111.479 111.494 111.689 110.945 110.895 110.512C110.97 110.823 110.624 111.027 110.583 111.297C110.128 110.471 108.696 109.808 109.035 108.873C107.025 109.544 107.514 111.06 106.951 112.151C106.951 112.151 106.428 110.674 105.505 110.363C105.736 110.952 105.172 111.169 105.159 111.595C105.159 111.622 105.159 111.622 105.159 111.595C104.697 110.607 104.982 109.307 103.651 108.765C103.679 109.523 103.142 110.119 102.918 110.837C102.816 110.58 102.409 110.383 102.497 110.167C101.438 110.573 101.445 111.934 101.092 112.557C101.112 111.616 100.583 111.446 100.474 111.236C100.338 111.467 99.999 111.71 99.8972 111.968C99.5238 111.006 98.6277 110.234 98.105 109.327C97.9285 110.214 96.9237 110.492 96.8083 111.372C96.4214 110.377 94.6155 109.544 94.8803 108.697C93.9502 109.557 94.0521 110.878 93.5904 111.859C93.4207 111.656 92.8844 111.453 92.8844 111.121C92.5789 111.304 92.5789 111.724 92.5178 111.927C92.1919 111.284 91.4791 110.715 91.289 110.058C90.9903 110.41 90.8206 110.844 90.7663 111.223C90.4336 110.356 88.5939 109.618 88.5939 109.645C89.1573 111.013 88.5939 112.09 87.7045 113.336H143.115L143.101 113.349Z" fill="#28AD00"/>
<path d="M96.5911 113.351C96.5775 112.477 95.7832 111.773 95.8443 110.92C95.5252 111.441 95.5524 111.983 95.4234 112.518C95.3759 112.349 95.2265 112.2 95.1518 112.037C95.0568 112.247 94.8327 112.471 94.7309 112.66C94.7173 112.24 94.3847 111.875 93.9909 111.563C93.9366 112.078 93.1763 112.464 92.6535 112.843C92.5789 112.653 92.3141 112.525 92.253 112.328C92.1308 112.498 91.9 112.599 91.8117 112.789C91.4519 112.186 90.2571 111.651 90.0874 111.062C89.8022 111.543 90.1892 112.044 90.0399 112.545C89.9177 112.362 89.6325 112.2 89.5171 112.017C89.4696 112.2 89.3202 112.369 89.2999 112.559C89.0962 112.179 88.716 111.82 88.5735 111.428C88.1729 112.098 87.7181 112.653 87.5959 113.364H96.5978L96.5911 113.351Z" fill="#73CF28"/>
<path d="M98.7906 113.351H110.386C110.148 112.877 109.612 112.437 109.531 111.942C109.103 112.193 108.858 112.545 108.804 112.897C108.872 112.166 107.833 111.787 107.324 111.184C106.849 111.38 106.476 111.705 106.381 112.064C106.177 111.868 105.899 111.773 105.776 111.529C105.559 111.814 105.417 112.125 105.423 112.437C104.833 112.152 104.31 111.766 104.602 111.292C104.066 111.57 103.699 111.963 103.672 112.389C103.088 111.516 102.531 111.015 101.554 110.297C101.622 111.103 100.787 111.915 100.413 112.64C100.311 112.477 100.074 112.328 99.9787 112.159C99.9719 112.355 99.8769 112.498 99.904 112.701C99.646 112.41 99.3473 112.071 99.1844 111.732C98.7296 112.24 98.8382 112.802 98.8042 113.351H98.7906Z" fill="#73CF28"/>
<path d="M123.21 113.351C123.013 113.053 122.769 112.768 122.809 112.423C122.504 112.646 122.321 112.728 122.205 113.005C121.852 112.193 120.515 111.814 120.298 111.008C120.033 111.597 120.189 112.294 119.639 112.809C119.463 112.633 119.171 112.497 119.042 112.294C118.899 112.552 118.736 112.816 118.607 113.066C118.58 112.403 118.044 111.875 117.48 111.299C117.256 111.739 116.964 112.261 117.093 112.728C116.822 112.409 116.496 112.105 116.082 111.847C116.082 111.983 115.993 112.145 116.007 112.294C115.681 111.827 115.091 111.441 115.172 110.906C114.296 111.644 113.821 112.464 113.93 113.364H123.21V113.351Z" fill="#73CF28"/>
<path d="M125.09 113.35H130.033C129.951 112.896 129.68 112.463 129.768 112.002C129.456 112.144 129.116 112.381 128.906 112.571C128.906 112.578 128.906 112.585 128.906 112.591C128.77 111.901 128.281 111.352 127.908 110.709C127.792 111.318 127.419 111.962 127.399 112.544C127.175 112.3 126.971 112.023 126.794 111.779C126.55 112.124 126.577 112.503 126.699 112.869C126.482 112.388 125.892 111.948 125.735 111.447C125.192 112.029 125.192 112.713 125.09 113.343V113.35Z" fill="#73CF28"/>
<path d="M140.895 113.351C141.051 112.64 140.277 112.125 139.537 111.549C139.836 111.962 139.449 112.369 139.306 112.775C138.987 112.558 138.872 112.267 138.96 111.976C138.437 112.166 138.111 112.524 138.172 112.883C137.643 112.369 137.453 111.841 136.631 111.4C137.093 111.854 136.564 112.409 136.312 112.856C136.251 112.714 136.061 112.579 136.02 112.396C135.667 112.714 135.6 113.019 135.62 113.351H140.895Z" fill="#73CF28"/>
<path d="M58.9268 113.35C58.7163 112.084 58.5534 110.269 59.3273 109.057C59.4427 110.134 60.6579 110.73 61.2214 111.881C61.2893 111.549 61.4794 111.176 61.588 110.845C61.6898 111.203 61.7917 111.373 62.199 111.569C61.846 109.91 62.1311 108.786 63.4345 107.764C63.2309 108.718 64.127 109.348 64.609 110.581C64.6565 110.364 64.8602 110.113 64.8941 109.89C64.9417 110.039 65.1182 110.242 65.1793 110.411C65.4576 109.578 66.1772 109.016 67.5214 108.576C67.5078 109.856 69.0693 110.621 69.5037 112.077C69.463 111.522 69.4426 110.892 69.85 110.404C70.1215 110.689 70.4813 110.967 70.556 111.312C71.9545 110.384 72.1853 109.423 71.8255 107.974C73.8554 108.393 75.0773 110.702 75.4507 111.339C75.4507 110.784 75.763 110.019 76.2858 109.68C76.0685 110.256 76.1771 110.96 76.8832 111.427C77.0325 110.303 78.3088 109.05 78.207 107.798C79.7548 108.475 79.5104 109.687 80.2911 110.601C80.3047 110.249 80.488 109.958 80.5966 109.619C80.5899 109.944 80.7053 110.289 80.7188 110.614C81.0447 110.107 81.2619 109.504 81.6896 109.057C82.1513 110.296 83.6923 110.364 84.1743 111.711C84.8125 111.014 84.3441 110.086 85.566 109.517C85.5864 110.174 86.7405 110.391 87.0053 111.305C87.0799 110.906 87.2565 110.493 87.5687 110.14C87.6502 110.581 87.8742 111 88.3155 111.332C88.7907 109.964 90.2639 108.922 90.9428 107.628C92.0222 108.671 91.1261 109.91 91.9543 111.055C92.2326 110.33 92.7147 109.646 93.3392 109.023C93.6379 109.463 94.0453 109.876 94.5001 110.269C94.1946 109.511 95.0025 109.213 94.8124 108.427C95.919 109.247 96.1566 110.418 97.2292 111.183C97.0866 110.391 97.6297 109.578 98.2679 109.098C98.234 109.504 98.5191 109.856 98.8721 110.614C99.069 109.531 100.169 108.272 102.036 107.845C101.194 108.84 101.907 109.883 101.846 111.149C102.165 110.486 102.857 110.073 102.891 109.172C103.611 109.551 103.814 110.12 103.991 110.669C103.991 108.888 105.288 108.536 104.534 107.256C106.557 107.798 106.686 110.858 107.731 111.088C107.453 110.113 107.487 109.308 108.539 108.718C108.573 109.375 109.13 109.673 109.13 110.648C109.327 109.829 110.746 109.416 111.615 108.624C112.307 109.558 111.146 109.87 111.771 111.684C111.784 110.323 112.735 110.222 112.925 109.416C114.269 110.452 113.427 112.043 114.269 113.377H58.9132L58.9268 113.35Z" fill="#1E732B"/>
<path d="M114.276 113.349C114.099 112.584 114.866 111.582 113.916 110.593C113.672 111.203 112.837 111.65 112.708 112.293C112.355 111.995 112.26 111.595 112.423 111.216C111.907 111.433 111.492 111.731 111.207 112.069C110.345 111.656 110.128 110.979 110.298 110.343C109.524 110.925 108.892 111.25 108.852 112.367C108.852 112.333 108.594 111.02 107.881 110.654C107.698 111.054 107.338 111.419 107.046 111.792C106.856 110.898 106.279 110.187 105.62 109.401C105.002 110.221 105.199 111.027 104.982 111.887C104.805 111.636 104.534 111.582 104.296 111.392C104.201 111.575 103.943 111.792 103.882 111.961C103.957 111.06 102.687 110.397 102.463 109.55C102.029 109.943 101.683 110.661 101.649 111.094C101.302 110.498 101.173 110.011 100.23 109.815C100.827 110.525 100.393 111.413 99.8768 112.178C99.7207 111.941 99.3337 111.717 99.1979 111.46C98.8517 111.616 98.7838 111.914 98.6888 112.11C98.3833 111.088 96.8151 110.566 96.9576 109.726C96.2109 110.058 95.885 110.999 95.7764 111.616C95.4845 111.176 94.826 111.148 94.405 110.715C94.0928 111.413 94.4933 111.846 93.8959 112.205C93.8959 112.205 92.2055 110.627 92.4838 109.815C91.2415 110.397 90.936 111.616 90.9835 112.557C90.6101 111.677 89.7479 110.898 89.3813 110.024C88.4988 110.41 88.7975 111.467 87.9896 112.212C87.657 112.151 87.4601 111.88 87.399 111.677C86.9374 112.008 86.9238 112.218 86.9374 112.523C86.5165 112.381 86.659 111.778 86.2721 111.71C86.3739 112.002 85.824 112.482 85.7833 112.733C85.5796 111.541 84.5273 111.297 83.9367 110.539C83.38 111.108 83.8213 111.392 83.0406 112.103C82.64 111.494 82.8505 110.945 82.0562 110.512C82.1309 110.823 81.7847 111.027 81.7371 111.297C81.2823 110.471 79.8498 109.808 80.1961 108.873C78.1866 109.544 78.6754 111.06 78.1119 112.151C78.1119 112.151 77.596 110.674 76.6659 110.363C76.8967 110.952 76.3333 111.169 76.3197 111.595C76.3197 111.622 76.3197 111.622 76.3197 111.595C75.858 110.607 76.1432 109.307 74.8126 108.765C74.8397 109.523 74.3034 110.119 74.0794 110.837C73.9775 110.58 73.5702 110.383 73.6585 110.167C72.5994 110.573 72.6062 111.934 72.2532 112.557C72.2735 111.616 71.744 111.446 71.6354 111.236C71.4996 111.467 71.1534 111.71 71.0584 111.968C70.685 111.006 69.7888 110.234 69.2661 109.327C69.0896 110.214 68.0849 110.492 67.9694 111.372C67.5825 110.377 65.7767 109.544 66.0414 108.697C65.1114 109.557 65.2132 110.878 64.7516 111.859C64.5818 111.656 64.0455 111.453 64.0455 111.121C63.74 111.304 63.74 111.724 63.6789 111.927C63.3531 111.284 62.6402 110.715 62.4501 110.058C62.1514 110.41 61.9817 110.844 61.9274 111.223C61.5948 110.356 59.755 109.618 59.755 109.645C60.3185 111.013 59.755 112.09 58.8657 113.336H114.276V113.349Z" fill="#28AD00"/>
<path d="M67.7726 113.351C67.759 112.477 66.9647 111.773 67.0258 110.92C66.7067 111.441 66.7339 111.983 66.6049 112.518C66.5574 112.349 66.408 112.2 66.3333 112.037C66.2383 112.247 66.0143 112.471 65.9124 112.66C65.8989 112.24 65.5662 111.875 65.1792 111.563C65.1181 112.078 64.3646 112.464 63.8351 112.843C63.7604 112.653 63.4956 112.525 63.4345 112.328C63.3123 112.498 63.0815 112.599 62.9933 112.789C62.6334 112.186 61.4386 111.651 61.2689 111.062C60.9838 111.543 61.3707 112.044 61.2214 112.545C61.0992 112.362 60.814 112.2 60.6986 112.017C60.6511 112.2 60.5018 112.369 60.4814 112.559C60.2777 112.179 59.8976 111.82 59.755 111.428C59.3544 112.098 58.8996 112.653 58.7774 113.364H67.7794L67.7726 113.351Z" fill="#73CF28"/>
<path d="M69.9722 113.351H81.5674C81.3298 112.877 80.7935 112.437 80.7121 111.942C80.2844 112.193 80.04 112.545 79.9857 112.897C80.0535 112.166 79.0149 111.787 78.5057 111.184C78.0305 111.38 77.6571 111.705 77.5621 112.064C77.3584 111.868 77.08 111.773 76.9578 111.529C76.7406 111.814 76.598 112.125 76.6048 112.437C76.0142 112.152 75.4915 111.766 75.7834 111.292C75.2471 111.57 74.8805 111.963 74.8465 112.389C74.2627 111.516 73.706 111.015 72.7284 110.297C72.7963 111.103 71.9613 111.915 71.5879 112.64C71.4861 112.477 71.2485 112.328 71.1534 112.159C71.1466 112.355 71.0516 112.498 71.0787 112.701C70.8208 112.41 70.5221 112.071 70.3591 111.732C69.9043 112.24 70.0129 112.802 69.979 113.351H69.9722Z" fill="#73CF28"/>
<path d="M94.3847 113.351C94.1878 113.053 93.9434 112.768 93.9841 112.423C93.6786 112.646 93.4953 112.728 93.3799 113.005C93.0269 112.193 91.6895 111.814 91.4723 111.008C91.2075 111.597 91.3637 112.294 90.8138 112.809C90.6373 112.633 90.3453 112.497 90.2164 112.294C90.0738 112.552 89.9176 112.816 89.7819 113.066C89.7547 112.403 89.2184 111.875 88.6549 111.299C88.4309 111.739 88.139 112.261 88.268 112.728C87.9964 112.409 87.6706 112.105 87.2564 111.847C87.2564 111.983 87.1682 112.145 87.1818 112.294C86.8559 111.827 86.2653 111.441 86.3535 110.906C85.471 111.644 85.0026 112.464 85.1112 113.364H94.3915L94.3847 113.351Z" fill="#73CF28"/>
<path d="M96.272 113.35H101.214C101.133 112.896 100.861 112.463 100.949 112.002C100.637 112.144 100.298 112.381 100.087 112.571C100.087 112.578 100.087 112.585 100.087 112.591C99.9515 111.901 99.4627 111.352 99.0893 110.709C98.9807 111.318 98.6005 111.962 98.5802 112.544C98.3561 112.3 98.1525 112.023 97.976 111.779C97.7316 112.124 97.7655 112.503 97.8809 112.869C97.6637 112.388 97.073 111.948 96.9169 111.447C96.3738 112.029 96.3738 112.713 96.272 113.343V113.35Z" fill="#73CF28"/>
<path d="M112.07 113.351C112.226 112.64 111.452 112.125 110.712 111.549C111.01 111.962 110.624 112.369 110.481 112.775C110.162 112.558 110.046 112.267 110.135 111.976C109.612 112.166 109.286 112.524 109.347 112.883C108.818 112.369 108.628 111.841 107.806 111.4C108.268 111.854 107.738 112.409 107.494 112.856C107.433 112.714 107.243 112.579 107.202 112.396C106.849 112.714 106.781 113.019 106.801 113.351H112.076H112.07Z" fill="#73CF28"/>
<path d="M131.404 32.5299H24.236V31.1553C24.236 30.1464 25.0507 29.3203 26.0486 29.3203H129.585C130.589 29.3203 131.397 30.1396 131.397 31.1553V32.5299H131.404Z" fill="#EA2700"/>
<path d="M18.8321 53.3516H3.17035V56.9132H18.8321V53.3516Z" fill="#EA2700"/>
<path d="M28.1803 105.345C28.6352 104.147 28.8864 102.847 28.8864 101.479C28.8864 95.6758 24.399 90.9766 18.8661 90.9766C13.3332 90.9766 8.84583 95.6826 8.84583 101.479C8.84583 102.847 9.09701 104.147 9.55186 105.345H28.1803Z" fill="#8FD348"/>
<path d="M28.1803 105.347C28.6352 104.148 28.8864 102.848 28.8864 101.48C28.8864 96.7471 25.8993 92.7453 21.7921 91.4316C21.3983 94.3162 19.4092 101.677 9.53827 105.319C9.53827 105.326 9.54506 105.34 9.55185 105.347H28.1803Z" fill="#64A333"/>
<path d="M18.0379 90.7947H17.9903V90.7473C17.9903 90.5374 17.8206 90.3613 17.6034 90.3613C17.3861 90.3613 17.2164 90.5374 17.2164 90.7473V90.7947H17.1689C16.9584 90.7947 16.7819 90.964 16.7819 91.1807C16.7819 91.3973 16.9516 91.5666 17.1689 91.5666H17.2164V91.614C17.2164 91.8239 17.3861 92 17.6034 92C17.8206 92 17.9903 91.8239 17.9903 91.614V91.5666H18.0379C18.2483 91.5666 18.4248 91.3973 18.4248 91.1807C18.4248 90.964 18.2551 90.7947 18.0379 90.7947Z" fill="#FFFAE6"/>
<path d="M17.7935 91.0119H17.7731V90.9915C17.7731 90.9035 17.6984 90.8223 17.6034 90.8223C17.5083 90.8223 17.4405 90.8967 17.4405 90.9915V91.0119H17.4201C17.3318 91.0119 17.2504 91.0863 17.2504 91.1811C17.2504 91.2759 17.325 91.3436 17.4201 91.3436H17.4405V91.364C17.4405 91.452 17.5151 91.5265 17.6034 91.5265C17.6916 91.5265 17.7731 91.452 17.7731 91.364V91.3436H17.7935C17.8817 91.3436 17.9564 91.2692 17.9564 91.1811C17.9564 91.0931 17.8817 91.0119 17.7935 91.0119Z" fill="#FFD9D9"/>
<path d="M17.7527 95.9953H17.6984V95.9412C17.6984 95.7042 17.5015 95.5078 17.2639 95.5078C17.0263 95.5078 16.8294 95.7042 16.8294 95.9412V95.9953H16.7751C16.5375 95.9953 16.3406 96.1917 16.3406 96.4287C16.3406 96.6657 16.5375 96.8621 16.7751 96.8621H16.8294V96.9162C16.8294 97.1532 17.0263 97.3496 17.2639 97.3496C17.5015 97.3496 17.6984 97.1532 17.6984 96.9162V96.8621H17.7527C17.9971 96.8621 18.1872 96.6657 18.1872 96.4287C18.1872 96.1917 17.9971 95.9953 17.7527 95.9953Z" fill="#FFFAE6"/>
<path d="M17.4744 96.2392H17.454V96.2189C17.454 96.1173 17.3726 96.0293 17.2639 96.0293C17.1553 96.0293 17.0739 96.1106 17.0739 96.2189V96.2392H17.0535C16.9449 96.2392 16.8634 96.3205 16.8634 96.4288C16.8634 96.5371 16.9449 96.6184 17.0535 96.6184H17.0739V96.6387C17.0739 96.7403 17.1553 96.8283 17.2639 96.8283C17.3726 96.8283 17.454 96.747 17.454 96.6387V96.6184H17.4744C17.5762 96.6184 17.6645 96.5371 17.6645 96.4288C17.6645 96.3205 17.583 96.2392 17.4744 96.2392Z" fill="#FFD9D9"/>
<path d="M22.1858 94.6946H22.1315V94.6404C22.1315 94.4034 21.9346 94.207 21.697 94.207C21.4594 94.207 21.2625 94.4034 21.2625 94.6404V94.6946H21.2082C20.9706 94.6946 20.7737 94.8909 20.7737 95.1279C20.7737 95.3649 20.9706 95.5613 21.2082 95.5613H21.2625V95.6155C21.2625 95.8524 21.4594 96.0488 21.697 96.0488C21.9346 96.0488 22.1315 95.8524 22.1315 95.6155V95.5613H22.1858C22.4234 95.5613 22.6203 95.3649 22.6203 95.1279C22.6203 94.8909 22.4234 94.6946 22.1858 94.6946Z" fill="#FFFAE6"/>
<path d="M21.9075 94.9384H21.8803V94.9181C21.8803 94.8165 21.7988 94.7285 21.6902 94.7285C21.5816 94.7285 21.5001 94.8098 21.5001 94.9181V94.9384H21.4798C21.3779 94.9384 21.2897 95.0197 21.2897 95.128C21.2897 95.2364 21.3711 95.3176 21.4798 95.3176H21.5001V95.3447C21.5001 95.4463 21.5816 95.5343 21.6902 95.5343C21.7988 95.5343 21.8803 95.453 21.8803 95.3447V95.3176H21.9075C22.0093 95.3176 22.0975 95.2364 22.0975 95.128C22.0975 95.0197 22.0161 94.9384 21.9075 94.9384Z" fill="#FFD9D9"/>
<path d="M17.8342 99.4075H17.7799V99.3533C17.7799 99.1163 17.583 98.9199 17.3454 98.9199C17.1078 98.9199 16.9109 99.1163 16.9109 99.3533V99.4075H16.8566C16.619 99.4075 16.4221 99.6038 16.4221 99.8408C16.4221 100.078 16.619 100.274 16.8566 100.274H16.9109V100.328C16.9109 100.565 17.1078 100.762 17.3454 100.762C17.583 100.762 17.7799 100.565 17.7799 100.328V100.274H17.8342C18.0718 100.274 18.2687 100.078 18.2687 99.8408C18.2687 99.6038 18.0718 99.4075 17.8342 99.4075Z" fill="#FFFAE6"/>
<path d="M17.5627 99.6503H17.5423V99.6232C17.5423 99.5216 17.4608 99.4336 17.3522 99.4336C17.2436 99.4336 17.1621 99.5148 17.1621 99.6232V99.6503H17.1417C17.0399 99.6503 16.9517 99.7315 16.9517 99.8399C16.9517 99.9482 17.0331 100.029 17.1417 100.029H17.1621V100.05C17.1621 100.151 17.2436 100.239 17.3522 100.239C17.4608 100.239 17.5423 100.158 17.5423 100.05V100.029H17.5627C17.6645 100.029 17.7527 99.9482 17.7527 99.8399C17.7527 99.7315 17.6713 99.6503 17.5627 99.6503Z" fill="#FFD9D9"/>
<path d="M22.6746 99.4621H22.6203V99.408C22.6203 99.171 22.4235 98.9746 22.1859 98.9746C21.9482 98.9746 21.7514 99.171 21.7514 99.408V99.4621H21.6971C21.4594 99.4621 21.2626 99.6585 21.2626 99.8955C21.2626 100.132 21.4594 100.329 21.6971 100.329H21.7514V100.383C21.7514 100.62 21.9482 100.816 22.1859 100.816C22.4235 100.816 22.6203 100.62 22.6203 100.383V100.329H22.6746C22.9123 100.329 23.1091 100.132 23.1091 99.8955C23.1091 99.6585 22.9123 99.4621 22.6746 99.4621Z" fill="#FFFAE6"/>
<path d="M22.4031 99.706H22.3827V99.6857C22.3827 99.5841 22.3013 99.4961 22.1927 99.4961C22.084 99.4961 22.0026 99.5841 22.0026 99.6857V99.706H21.9822C21.8804 99.706 21.7921 99.7873 21.7921 99.8956C21.7921 100.004 21.8736 100.085 21.9822 100.085H22.0026V100.106C22.0026 100.207 22.084 100.295 22.1927 100.295C22.3013 100.295 22.3827 100.214 22.3827 100.106V100.085H22.4031C22.5049 100.085 22.5932 100.004 22.5932 99.8956C22.5932 99.7873 22.5117 99.706 22.4031 99.706Z" fill="#FFD9D9"/>
<path d="M12.4371 99.2785H12.3828V99.2244C12.3828 98.9874 12.1859 98.791 11.9483 98.791C11.7107 98.791 11.5138 98.9874 11.5138 99.2244V99.2785H11.4595C11.2219 99.2785 11.025 99.4681 11.025 99.7119C11.025 99.9557 11.2219 100.145 11.4595 100.145H11.5138V100.199C11.5138 100.436 11.7107 100.633 11.9483 100.633C12.1859 100.633 12.3828 100.436 12.3828 100.199V100.145H12.4371C12.6747 100.145 12.8716 99.9489 12.8716 99.7119C12.8716 99.4749 12.6747 99.2785 12.4371 99.2785Z" fill="#FFFAE6"/>
<path d="M12.1588 99.5224H12.1384V99.5021C12.1384 99.4005 12.057 99.3125 11.9483 99.3125C11.8397 99.3125 11.7582 99.3938 11.7582 99.5021V99.5224H11.7379C11.636 99.5224 11.5478 99.6037 11.5478 99.712C11.5478 99.8203 11.636 99.9016 11.7379 99.9016H11.7582V99.9219C11.7582 100.023 11.8397 100.112 11.9483 100.112C12.057 100.112 12.1384 100.03 12.1384 99.9219V99.9016H12.1588C12.2606 99.9016 12.3489 99.8203 12.3489 99.712C12.3489 99.6037 12.2606 99.5224 12.1588 99.5224Z" fill="#FFD9D9"/>
<path d="M27.2163 99.218H27.162V99.1638C27.162 98.9268 26.9719 98.7305 26.7275 98.7305C26.4831 98.7305 26.2931 98.9201 26.2931 99.1638V99.218H26.2387C26.0011 99.218 25.8043 99.4144 25.8043 99.6514C25.8043 99.8884 26.0011 100.085 26.2387 100.085H26.2931V100.139C26.2931 100.376 26.4831 100.572 26.7275 100.572C26.9719 100.572 27.162 100.376 27.162 100.139V100.085H27.2163C27.4539 100.085 27.6508 99.8884 27.6508 99.6514C27.6508 99.4144 27.4539 99.218 27.2163 99.218Z" fill="#FFFAE6"/>
<path d="M26.938 99.4608H26.9108V99.4337C26.9108 99.3322 26.8294 99.2441 26.7207 99.2441C26.6121 99.2441 26.5306 99.3254 26.5306 99.4337V99.4608H26.5103C26.4084 99.4608 26.3202 99.5421 26.3202 99.6504C26.3202 99.7587 26.4017 99.84 26.5103 99.84H26.5306V99.8603C26.5306 99.9619 26.6121 100.05 26.7207 100.05C26.8294 100.05 26.9108 99.9687 26.9108 99.8603V99.84H26.938C27.0398 99.84 27.1281 99.7587 27.1281 99.6504C27.1281 99.5421 27.0466 99.4608 26.938 99.4608Z" fill="#FFD9D9"/>
<path d="M24.7927 101.263H24.7723V101.236C24.7723 101.128 24.6841 101.033 24.5687 101.033C24.4533 101.033 24.3718 101.121 24.3718 101.236V101.263H24.3446C24.236 101.263 24.1478 101.351 24.1478 101.46C24.1478 101.568 24.236 101.656 24.3446 101.656H24.3718V101.683C24.3718 101.792 24.4601 101.88 24.5687 101.88C24.6773 101.88 24.7723 101.792 24.7723 101.683V101.656H24.7927C24.9013 101.656 24.9896 101.568 24.9896 101.46C24.9896 101.351 24.9013 101.263 24.7927 101.263Z" fill="#FFFAE6"/>
<path d="M24.6637 101.379H24.6502V101.365C24.6502 101.318 24.6094 101.277 24.5619 101.277C24.5144 101.277 24.4737 101.318 24.4737 101.365V101.379H24.4601C24.4126 101.379 24.3718 101.42 24.3718 101.467C24.3718 101.514 24.4126 101.555 24.4601 101.555H24.4737C24.4737 101.609 24.5144 101.65 24.5619 101.65C24.6094 101.65 24.6502 101.609 24.6502 101.562L24.6637 101.555C24.7113 101.555 24.752 101.514 24.752 101.467C24.752 101.42 24.7113 101.379 24.6637 101.379Z" fill="#FFD9D9"/>
<path d="M20.1288 101.263H20.1017V101.236C20.1017 101.128 20.0134 101.033 19.9048 101.033C19.7962 101.033 19.7079 101.121 19.7079 101.236V101.263H19.6808C19.5721 101.263 19.4839 101.351 19.4839 101.46C19.4839 101.568 19.5721 101.656 19.6808 101.656H19.7079V101.683C19.7079 101.792 19.7962 101.88 19.9048 101.88C20.0134 101.88 20.1017 101.792 20.1017 101.683V101.656H20.1288C20.2374 101.656 20.3257 101.568 20.3257 101.46C20.3257 101.351 20.2374 101.263 20.1288 101.263Z" fill="#FFFAE6"/>
<path d="M20.0066 101.379H19.9931V101.365C19.9931 101.318 19.9523 101.277 19.9048 101.277C19.8573 101.277 19.8166 101.318 19.8166 101.365V101.379H19.803C19.7555 101.379 19.7147 101.42 19.7147 101.467C19.7147 101.514 19.7555 101.555 19.803 101.555H19.8166C19.8166 101.609 19.8573 101.65 19.9048 101.65C19.9523 101.65 19.9931 101.609 19.9931 101.562L20.0066 101.555C20.0542 101.555 20.0949 101.514 20.0949 101.467C20.0949 101.42 20.0542 101.379 20.0066 101.379Z" fill="#FFD9D9"/>
<path d="M14.6027 101.263H14.5823V101.236C14.5823 101.128 14.4941 101.033 14.3787 101.033C14.2633 101.033 14.1818 101.121 14.1818 101.236V101.263H14.1614C14.0528 101.263 13.9578 101.351 13.9578 101.46C13.9578 101.568 14.046 101.656 14.1614 101.656H14.1818V101.683C14.1818 101.792 14.27 101.88 14.3787 101.88C14.4873 101.88 14.5823 101.792 14.5823 101.683V101.656H14.6027C14.7113 101.656 14.7996 101.568 14.7996 101.46C14.7996 101.351 14.7113 101.263 14.6027 101.263Z" fill="#FFFAE6"/>
<path d="M14.4805 101.379H14.4737V101.365C14.4737 101.318 14.433 101.277 14.3854 101.277C14.3379 101.277 14.2972 101.318 14.2972 101.365V101.379H14.2904C14.2429 101.379 14.2021 101.42 14.2021 101.467C14.2021 101.514 14.2429 101.555 14.2904 101.555H14.2972C14.2972 101.609 14.3379 101.65 14.3854 101.65C14.433 101.65 14.4737 101.609 14.4737 101.562L14.4805 101.555C14.528 101.555 14.5687 101.514 14.5687 101.467C14.5687 101.42 14.528 101.379 14.4805 101.379Z" fill="#FFD9D9"/>
<path d="M10.19 101.263H10.1628V101.236C10.1628 101.128 10.0746 101.033 9.96595 101.033C9.85733 101.033 9.76907 101.121 9.76907 101.236V101.263H9.74192C9.6333 101.263 9.54504 101.351 9.54504 101.46C9.54504 101.568 9.6333 101.656 9.74192 101.656H9.76907V101.683C9.76907 101.792 9.85733 101.88 9.96595 101.88C10.0746 101.88 10.1628 101.792 10.1628 101.683V101.656H10.19C10.2986 101.656 10.3869 101.568 10.3869 101.46C10.3869 101.351 10.2986 101.263 10.19 101.263Z" fill="#FFFAE6"/>
<path d="M10.061 101.379H10.0474V101.365C10.0474 101.318 10.0067 101.277 9.95918 101.277C9.91166 101.277 9.87092 101.318 9.87092 101.365V101.379H9.86413C9.81661 101.379 9.77588 101.42 9.77588 101.467C9.77588 101.514 9.81661 101.555 9.86413 101.555H9.87092C9.87092 101.609 9.91166 101.65 9.95918 101.65C10.0067 101.65 10.0474 101.609 10.0474 101.562L10.061 101.555C10.1085 101.555 10.1493 101.514 10.1493 101.467C10.1493 101.42 10.1085 101.379 10.061 101.379Z" fill="#FFD9D9"/>
<path d="M18.3298 93.3004H18.2619V93.2327C18.2619 92.9145 18.0039 92.6504 17.6781 92.6504C17.3522 92.6504 17.0942 92.9077 17.0942 93.2327V93.3004H17.0263C16.7073 93.3004 16.4425 93.5577 16.4425 93.8828C16.4425 94.2078 16.7005 94.4651 17.0263 94.4651H17.0942V94.5328C17.0942 94.851 17.3522 95.1151 17.6781 95.1151C18.0039 95.1151 18.2619 94.8578 18.2619 94.5328V94.4651H18.3298C18.6489 94.4651 18.9136 94.2078 18.9136 93.8828C18.9136 93.5577 18.6557 93.3004 18.3298 93.3004Z" fill="#FFFAE6"/>
<path d="M17.9564 93.6253H17.9293V93.5982C17.9293 93.456 17.8139 93.3477 17.6781 93.3477C17.5423 93.3477 17.4269 93.4628 17.4269 93.5982V93.6253H17.3997C17.2572 93.6253 17.1486 93.7336 17.1486 93.8758C17.1486 94.018 17.264 94.1263 17.3997 94.1263H17.4269V94.1602C17.4269 94.2956 17.5423 94.4107 17.6781 94.4107C17.8139 94.4107 17.9293 94.2956 17.9293 94.1602V94.1263H17.9564C18.099 94.1263 18.2076 94.0112 18.2076 93.8758C18.2076 93.7404 18.0922 93.6253 17.9564 93.6253Z" fill="#FFD9D9"/>
<path d="M14.1207 94.3487H14.0664V94.2946C14.0664 94.044 13.8627 93.8477 13.6183 93.8477C13.3739 93.8477 13.1703 94.0508 13.1703 94.2946V94.3487H13.116C12.8648 94.3487 12.6679 94.5519 12.6679 94.8024C12.6679 95.0529 12.8648 95.2493 13.116 95.2493H13.1703V95.3035C13.1703 95.554 13.3672 95.7504 13.6183 95.7504C13.8695 95.7504 14.0664 95.5472 14.0664 95.3035V95.2493H14.1207C14.3719 95.2493 14.5688 95.0462 14.5688 94.8024C14.5688 94.5586 14.3651 94.3487 14.1207 94.3487Z" fill="#FFFAE6"/>
<path d="M13.8356 94.6063H13.8085V94.5792C13.8085 94.4708 13.7202 94.3828 13.6116 94.3828C13.503 94.3828 13.4147 94.4708 13.4147 94.5792V94.6063H13.3875C13.2789 94.6063 13.1907 94.6943 13.1907 94.8026C13.1907 94.911 13.2789 94.999 13.3875 94.999H13.4147V95.0261C13.4147 95.1344 13.503 95.2225 13.6116 95.2225C13.7202 95.2225 13.8085 95.1344 13.8085 95.0261V94.999H13.8356C13.9442 94.999 14.0325 94.911 14.0325 94.8026C14.0325 94.6943 13.9442 94.6063 13.8356 94.6063Z" fill="#FFD9D9"/>
<path d="M11.9212 93.5296H11.8465V93.4551C11.8465 93.1166 11.5749 92.8457 11.2355 92.8457C10.8961 92.8457 10.6245 93.1166 10.6245 93.4551V93.5296H10.5498C10.2104 93.5296 9.93884 93.8005 9.93884 94.139C9.93884 94.4776 10.2104 94.7484 10.5498 94.7484H10.6245V94.8229C10.6245 95.1615 10.8961 95.4323 11.2355 95.4323C11.5749 95.4323 11.8465 95.1615 11.8465 94.8229V94.7484H11.9212C12.2606 94.7484 12.5322 94.4776 12.5322 94.139C12.5322 93.8005 12.2606 93.5296 11.9212 93.5296Z" fill="#FFFAE6"/>
<path d="M11.5342 93.8741H11.5003V93.8403C11.5003 93.6981 11.3849 93.5762 11.2355 93.5762C11.0862 93.5762 10.9708 93.6913 10.9708 93.8403V93.8741H10.9368C10.7875 93.8741 10.6721 93.996 10.6721 94.1382C10.6721 94.2804 10.7943 94.4023 10.9368 94.4023H10.9708V94.4361C10.9708 94.5783 11.0862 94.7002 11.2355 94.7002C11.3849 94.7002 11.5003 94.5783 11.5003 94.4361V94.4023H11.5342C11.6836 94.4023 11.799 94.2804 11.799 94.1382C11.799 93.996 11.6836 93.8741 11.5342 93.8741Z" fill="#FFD9D9"/>
<path d="M15.5328 91.5253H15.4649V91.4576C15.4649 91.1461 15.2138 90.9023 14.9015 90.9023C14.5892 90.9023 14.3448 91.1529 14.3448 91.4576V91.5253H14.2769C13.9646 91.5253 13.7202 91.7758 13.7202 92.0805C13.7202 92.3853 13.9714 92.6426 14.2769 92.6426H14.3448V92.7103C14.3448 93.0217 14.596 93.2723 14.9015 93.2723C15.207 93.2723 15.4649 93.0217 15.4649 92.7103V92.6426H15.5328C15.8451 92.6426 16.0963 92.392 16.0963 92.0805C16.0963 91.7691 15.8451 91.5253 15.5328 91.5253Z" fill="#FFFAE6"/>
<path d="M15.173 91.8431H15.1458V91.816C15.1458 91.6806 15.0372 91.5723 14.9014 91.5723C14.7657 91.5723 14.657 91.6806 14.657 91.816V91.8431H14.6299C14.4941 91.8431 14.3855 91.9515 14.3855 92.0869C14.3855 92.2223 14.4941 92.3306 14.6299 92.3306H14.657V92.3577C14.657 92.4931 14.7657 92.6015 14.9014 92.6015C15.0372 92.6015 15.1458 92.4931 15.1458 92.3577V92.3306H15.173C15.3088 92.3306 15.4174 92.2223 15.4174 92.0869C15.4174 91.9515 15.3088 91.8431 15.173 91.8431Z" fill="#FFD9D9"/>
<path d="M21.3101 91.4185H21.2422V91.344C21.2422 91.0258 20.9842 90.7617 20.6584 90.7617C20.3325 90.7617 20.0745 91.019 20.0745 91.344V91.4185H20.0066C19.6876 91.4185 19.4228 91.6758 19.4228 92.0009C19.4228 92.3259 19.6808 92.5832 20.0066 92.5832H20.0745V92.6509C20.0745 92.9692 20.3325 93.2332 20.6584 93.2332C20.9842 93.2332 21.2422 92.9759 21.2422 92.6509V92.5832H21.3101C21.6292 92.5832 21.8939 92.3259 21.8939 92.0009C21.8939 91.6758 21.6359 91.4185 21.3101 91.4185Z" fill="#FFFAE6"/>
<path d="M20.9435 91.7444H20.9163V91.7173C20.9163 91.5751 20.8009 91.4668 20.6652 91.4668C20.5294 91.4668 20.414 91.5819 20.414 91.7173V91.7444H20.38C20.2443 91.7444 20.1288 91.8528 20.1288 91.995C20.1288 92.1371 20.2443 92.2455 20.38 92.2455H20.414V92.2793C20.414 92.4148 20.5294 92.5299 20.6652 92.5299C20.8009 92.5299 20.9163 92.4148 20.9163 92.2793V92.2455H20.9435C21.0793 92.2455 21.1947 92.1304 21.1947 91.995C21.1947 91.8595 21.0793 91.7444 20.9435 91.7444Z" fill="#FFD9D9"/>
<path d="M24.7791 92.5895H24.7112V92.5218C24.7112 92.2035 24.4533 91.9395 24.1274 91.9395C23.8015 91.9395 23.5436 92.1968 23.5436 92.5218V92.5895H23.4757C23.1498 92.5895 22.8918 92.8468 22.8918 93.1718C22.8918 93.4968 23.1498 93.7542 23.4757 93.7542H23.5436V93.8219C23.5436 94.1401 23.8015 94.4042 24.1274 94.4042C24.4533 94.4042 24.7112 94.1469 24.7112 93.8219V93.7542H24.7791C25.0982 93.7542 25.363 93.4968 25.363 93.1718C25.363 92.8468 25.105 92.5895 24.7791 92.5895Z" fill="#FFFAE6"/>
<path d="M24.4058 92.9211H24.3786V92.8873C24.3786 92.7451 24.2632 92.6367 24.1274 92.6367C23.9917 92.6367 23.8762 92.7518 23.8762 92.8873V92.9211H23.8491C23.7065 92.9211 23.5979 93.0362 23.5979 93.1717C23.5979 93.3071 23.7065 93.4222 23.8491 93.4222H23.8762V93.456C23.8762 93.5982 23.9917 93.7066 24.1274 93.7066C24.2632 93.7066 24.3786 93.5915 24.3786 93.456V93.4222H24.4058C24.5483 93.4222 24.657 93.3138 24.657 93.1717C24.657 93.0295 24.5415 92.9211 24.4058 92.9211Z" fill="#FFD9D9"/>
<path d="M27.325 94.945H27.2571V94.8772C27.2571 94.559 26.9991 94.2949 26.6732 94.2949C26.3474 94.2949 26.0894 94.5522 26.0894 94.8772V94.945H26.0215C25.6957 94.945 25.4377 95.2023 25.4377 95.5273C25.4377 95.8523 25.6957 96.1096 26.0215 96.1096H26.0894V96.1773C26.0894 96.5023 26.3474 96.7597 26.6732 96.7597C26.9991 96.7597 27.2571 96.5023 27.2571 96.1773V96.1096H27.325C27.644 96.1096 27.9088 95.8523 27.9088 95.5273C27.9088 95.2023 27.6508 94.945 27.325 94.945Z" fill="#FFFAE6"/>
<path d="M26.9516 95.2698H26.9176V95.2427C26.9176 95.1005 26.8022 94.9922 26.6664 94.9922C26.5307 94.9922 26.4152 95.1005 26.4152 95.2427V95.2698H26.3881C26.2523 95.2698 26.1369 95.3849 26.1369 95.5204C26.1369 95.6558 26.2523 95.7709 26.3881 95.7709H26.4152V95.8047C26.4152 95.9402 26.5307 96.0553 26.6664 96.0553C26.8022 96.0553 26.9176 95.9402 26.9176 95.8047V95.7709H26.9516C27.0873 95.7709 27.2027 95.6558 27.2027 95.5204C27.2027 95.3849 27.0873 95.2698 26.9516 95.2698Z" fill="#FFD9D9"/>
<path d="M15.1119 97.3629H15.044V97.2952C15.044 96.977 14.7792 96.7129 14.4602 96.7129C14.1411 96.7129 13.8763 96.9702 13.8763 97.2952V97.3629H13.8084C13.4826 97.3629 13.2246 97.6202 13.2246 97.9453C13.2246 98.2703 13.4826 98.5276 13.8084 98.5276H13.8763V98.5953C13.8763 98.9135 14.1343 99.1776 14.4602 99.1776C14.786 99.1776 15.044 98.9203 15.044 98.5953V98.5276H15.1119C15.431 98.5276 15.6957 98.2703 15.6957 97.9453C15.6957 97.6202 15.4378 97.3629 15.1119 97.3629Z" fill="#FFFAE6"/>
<path d="M14.7453 97.6945H14.7182V97.6607C14.7182 97.5253 14.6027 97.4102 14.467 97.4102C14.3312 97.4102 14.2158 97.5253 14.2158 97.6607V97.6945H14.1886C14.0461 97.6945 13.9374 97.8097 13.9374 97.9451C13.9374 98.0805 14.0528 98.1956 14.1886 98.1956H14.2158V98.2227C14.2158 98.3581 14.3312 98.4732 14.467 98.4732C14.6027 98.4732 14.7182 98.3581 14.7182 98.2227V98.1956H14.7453C14.8879 98.1956 14.9965 98.0805 14.9965 97.9451C14.9965 97.8097 14.8811 97.6945 14.7453 97.6945Z" fill="#FFD9D9"/>
<path d="M20.6108 96.9235H20.5429V96.8558C20.5429 96.5375 20.2849 96.2734 19.9591 96.2734C19.6332 96.2734 19.3752 96.5307 19.3752 96.8558V96.9235H19.3073C18.9883 96.9235 18.7235 97.1808 18.7235 97.5058C18.7235 97.8308 18.9815 98.0881 19.3073 98.0881H19.3752V98.1626C19.3752 98.4809 19.6332 98.7449 19.9591 98.7449C20.2849 98.7449 20.5429 98.4876 20.5429 98.1626V98.0881H20.6108C20.9299 98.0881 21.1946 97.8308 21.1946 97.5058C21.1946 97.1808 20.9367 96.9235 20.6108 96.9235Z" fill="#FFFAE6"/>
<path d="M20.2442 97.2551H20.2171V97.2212C20.2171 97.079 20.1017 96.9707 19.9659 96.9707C19.8301 96.9707 19.7147 97.0858 19.7147 97.2212V97.2551H19.6808C19.545 97.2551 19.4296 97.3634 19.4296 97.5056C19.4296 97.6478 19.545 97.7562 19.6808 97.7562H19.7147V97.7833C19.7147 97.9254 19.8301 98.0338 19.9659 98.0338C20.1017 98.0338 20.2171 97.9187 20.2171 97.7833V97.7562H20.2442C20.3868 97.7562 20.4954 97.6411 20.4954 97.5056C20.4954 97.3702 20.38 97.2551 20.2442 97.2551Z" fill="#FFD9D9"/>
<path d="M25.0846 96.9235H25.0167V96.8558C25.0167 96.5375 24.7588 96.2734 24.4329 96.2734C24.107 96.2734 23.8491 96.5307 23.8491 96.8558V96.9235H23.7812C23.4621 96.9235 23.1973 97.1808 23.1973 97.5058C23.1973 97.8308 23.4553 98.0881 23.7812 98.0881H23.8491V98.1626C23.8491 98.4809 24.107 98.7449 24.4329 98.7449C24.7588 98.7449 25.0167 98.4876 25.0167 98.1626V98.0881H25.0846C25.4037 98.0881 25.6685 97.8308 25.6685 97.5058C25.6685 97.1808 25.4105 96.9235 25.0846 96.9235Z" fill="#FFFAE6"/>
<path d="M24.7112 97.2551H24.684V97.2212C24.684 97.079 24.5686 96.9707 24.4329 96.9707C24.2971 96.9707 24.1817 97.0858 24.1817 97.2212V97.2551H24.1477C24.012 97.2551 23.8965 97.3634 23.8965 97.5056C23.8965 97.6478 24.012 97.7562 24.1477 97.7562H24.1817V97.7833C24.1817 97.9254 24.2971 98.0338 24.4329 98.0338C24.5686 98.0338 24.684 97.9187 24.684 97.7833V97.7562H24.7112C24.8538 97.7562 24.9624 97.6411 24.9624 97.5056C24.9624 97.3702 24.847 97.2551 24.7112 97.2551Z" fill="#FFD9D9"/>
<path d="M10.8146 97.228H10.7535V97.1671C10.7535 96.8895 10.5294 96.666 10.2511 96.666C9.97274 96.666 9.74871 96.8895 9.74871 97.1671V97.228H9.68761C9.40927 97.228 9.18524 97.4515 9.18524 97.7291C9.18524 98.0067 9.40927 98.2302 9.68761 98.2302H9.74871V98.2911C9.74871 98.5687 9.97274 98.7922 10.2511 98.7922C10.5294 98.7922 10.7535 98.5687 10.7535 98.2911V98.2302H10.8146C11.0929 98.2302 11.3169 98.0067 11.3169 97.7291C11.3169 97.4515 11.0929 97.228 10.8146 97.228Z" fill="#FFFAE6"/>
<path d="M10.4955 97.5055H10.4683V97.4784C10.4683 97.3565 10.3733 97.2617 10.2511 97.2617C10.1289 97.2617 10.0338 97.3565 10.0338 97.4784V97.5055H10.0067C9.88447 97.5055 9.78943 97.6003 9.78943 97.7222C9.78943 97.8441 9.88447 97.9388 10.0067 97.9388H10.0338V97.9659C10.0338 98.0878 10.1289 98.1826 10.2511 98.1826C10.3733 98.1826 10.4683 98.0878 10.4683 97.9659V97.9388H10.4955C10.6177 97.9388 10.7127 97.8441 10.7127 97.7222C10.7127 97.6003 10.6177 97.5055 10.4955 97.5055Z" fill="#FFD9D9"/>
<path d="M27.8409 108.704C27.6101 111.155 25.4512 112.367 22.0297 112.367H14.4805C11.0658 112.367 10.1085 110.153 9.81662 108.331L9.50433 105.203H28.2211L27.8409 108.711V108.704Z" fill="#CE200F"/>
<path d="M23.7948 108.705L24.1749 105.197H9.50433L9.81662 108.326C10.1085 110.147 11.0658 112.361 14.4805 112.361H17.9835C21.3983 112.361 23.5572 111.149 23.7948 108.698V108.705Z" fill="#FF3E24"/>
</g>
<defs>
<clipPath id="clip0_172_5680">
<rect width="146" height="120" fill="white"/>
</clipPath>
</defs>
</svg>
